<svg width="183" height="276" viewBox="0 0 183 276" fill="none" xmlns="http://www.w3.org/2000/svg">
<circle cx="7" cy="73" r="2" fill="#FBB13C"/>
<circle cx="60" cy="16" r="2" fill="#FBB13C"/>
<circle cx="83" cy="157" r="2" fill="#FBB13C"/>
<circle cx="53" cy="103" r="2" fill="#FBB13C"/>
<circle cx="41" cy="54" r="2" fill="#FBB13C"/>
<circle cx="169" cy="228" r="2" fill="#FBB13C"/>
<circle cx="154" cy="150" r="2" fill="#FBB13C"/>
<circle cx="160" cy="81" r="2" fill="#FBB13C"/>
<circle cx="49" cy="205" r="2" fill="#FBB13C"/>
<circle cx="45" cy="150" r="2" fill="#FBB13C"/>
<circle cx="128" cy="190" r="2" fill="#FBB13C"/>
<circle cx="150" cy="274" r="2" fill="#FBB13C"/>
<circle cx="124" cy="115" r="2" fill="#FBB13C"/>
<circle cx="177" cy="123" r="2" fill="#FBB13C"/>
<circle cx="2" cy="2" r="2" fill="#FBB13C"/>
<circle cx="6" cy="134" r="2" fill="#FBB13C"/>
<circle cx="124" cy="224" r="2" fill="#FBB13C"/>
<circle cx="89" cy="238" r="2" fill="#FBB13C"/>
<circle cx="116" cy="35" r="2" fill="#FBB13C"/>
<circle cx="93" cy="73" r="2" fill="#FBB13C"/>
<circle cx="181" cy="169" r="2" fill="#FBB13C"/>
</svg>
