<?xml version="1.0" encoding="UTF-8"?>
<svg width="629px" height="746px" viewBox="0 0 629 746" version="1.1" xmlns="http://www.w3.org/2000/svg" xmlns:xlink="http://www.w3.org/1999/xlink">
    <title>greenLeafsBg</title>
    <defs>
        <linearGradient x1="109.783006%" y1="78.4680017%" x2="-30.8781969%" y2="28.7804385%" id="linearGradient-1">
            <stop stop-color="#204F35" offset="0%"></stop>
            <stop stop-color="#2C6E49" offset="100%"></stop>
        </linearGradient>
        <linearGradient x1="96.9679506%" y1="81.2437933%" x2="-13.5411867%" y2="26.711411%" id="linearGradient-2">
            <stop stop-color="#204F35" offset="0%"></stop>
            <stop stop-color="#2C6E49" offset="100%"></stop>
        </linearGradient>
        <linearGradient x1="88.8343163%" y1="81.2437933%" x2="-2.53749657%" y2="26.711411%" id="linearGradient-3">
            <stop stop-color="#204F35" offset="0%"></stop>
            <stop stop-color="#2C6E49" offset="100%"></stop>
        </linearGradient>
        <linearGradient x1="109.783006%" y1="56.1211302%" x2="-30.8781969%" y2="45.4374143%" id="linearGradient-4">
            <stop stop-color="#204F35" offset="0%"></stop>
            <stop stop-color="#2C6E49" offset="100%"></stop>
        </linearGradient>
        <linearGradient x1="109.783006%" y1="65.6761393%" x2="-30.8781969%" y2="38.3152739%" id="linearGradient-5">
            <stop stop-color="#204F35" offset="0%"></stop>
            <stop stop-color="#2C6E49" offset="100%"></stop>
        </linearGradient>
        <linearGradient x1="109.783006%" y1="70.3198448%" x2="-30.8781969%" y2="34.8539353%" id="linearGradient-6">
            <stop stop-color="#204F35" offset="0%"></stop>
            <stop stop-color="#2C6E49" offset="100%"></stop>
        </linearGradient>
        <linearGradient x1="56.5099809%" y1="1.00485556e-14%" x2="45.0380228%" y2="99.847028%" id="linearGradient-7">
            <stop stop-color="#3F8E62" offset="0%"></stop>
            <stop stop-color="#2C6E49" offset="100%"></stop>
        </linearGradient>
        <linearGradient x1="48.279696%" y1="5.22934805%" x2="52.3592336%" y2="93.6848227%" id="linearGradient-8">
            <stop stop-color="#6CC48A" offset="0%"></stop>
            <stop stop-color="#4C956C" offset="100%"></stop>
        </linearGradient>
        <linearGradient x1="48.5377314%" y1="5.22934805%" x2="52.0053626%" y2="93.6848227%" id="linearGradient-9">
            <stop stop-color="#6CC48A" offset="0%"></stop>
            <stop stop-color="#4C956C" offset="100%"></stop>
        </linearGradient>
        <linearGradient x1="46.9758209%" y1="5.22934805%" x2="54.1473745%" y2="93.6848227%" id="linearGradient-10">
            <stop stop-color="#6CC48A" offset="0%"></stop>
            <stop stop-color="#4C956C" offset="100%"></stop>
        </linearGradient>
        <linearGradient x1="44.9794601%" y1="35.6681206%" x2="56.8851938%" y2="63.9842862%" id="linearGradient-11">
            <stop stop-color="#6CC48A" offset="0%"></stop>
            <stop stop-color="#4C956C" offset="100%"></stop>
        </linearGradient>
        <linearGradient x1="44.9794601%" y1="29.4849746%" x2="56.8851938%" y2="70.0174714%" id="linearGradient-12">
            <stop stop-color="#6CC48A" offset="0%"></stop>
            <stop stop-color="#4C956C" offset="100%"></stop>
        </linearGradient>
        <linearGradient x1="44.9794601%" y1="16.0376636%" x2="56.8851938%" y2="83.1386428%" id="linearGradient-13">
            <stop stop-color="#6CC48A" offset="0%"></stop>
            <stop stop-color="#4C956C" offset="100%"></stop>
        </linearGradient>
        <linearGradient x1="44.9794601%" y1="31.661941%" x2="56.8851938%" y2="67.8933034%" id="linearGradient-14">
            <stop stop-color="#6CC48A" offset="0%"></stop>
            <stop stop-color="#4C956C" offset="100%"></stop>
        </linearGradient>
        <linearGradient x1="44.9794601%" y1="28.7059919%" x2="56.8851938%" y2="70.7775613%" id="linearGradient-15">
            <stop stop-color="#6CC48A" offset="0%"></stop>
            <stop stop-color="#4C956C" offset="100%"></stop>
        </linearGradient>
        <linearGradient x1="48.5360106%" y1="5.22934805%" x2="52.0077225%" y2="93.6848227%" id="linearGradient-16">
            <stop stop-color="#6CC48A" offset="0%"></stop>
            <stop stop-color="#4C956C" offset="100%"></stop>
        </linearGradient>
        <linearGradient x1="46.8534463%" y1="5.22934805%" x2="54.3151996%" y2="93.6848227%" id="linearGradient-17">
            <stop stop-color="#6CC48A" offset="0%"></stop>
            <stop stop-color="#4C956C" offset="100%"></stop>
        </linearGradient>
    </defs>
    <g id="Save-the-date" stroke="none" stroke-width="1" fill="none" fill-rule="evenodd">
        <g id="Save-the-Date-export" transform="translate(-1636.000000, -75.000000)">
            <g id="greenLeafsBg" transform="translate(1636.171875, 75.000000)">
                <g id="leafs" opacity="0.1" transform="translate(196.343241, 267.014531) rotate(10.000000) translate(-196.343241, -267.014531) translate(89.444956, 36.037091)">
                    <path d="M116.862979,241.683755 C107.698141,231.690979 116.862979,207.670216 126.027818,204.62066 C135.192657,201.571103 138.527126,210.424079 145.177787,215.669457 C151.828447,220.914834 162.468817,234.158349 153.823302,237.921052 C145.177787,241.683755 126.027818,251.67653 116.862979,241.683755 Z" id="Path-35" fill="url(#linearGradient-1)"></path>
                    <path d="M162.422934,66.5767914 C162.422934,74.9141925 151.887512,82.3111821 130.816667,88.7677601 C120.958357,59.4344268 120.958357,44.7677601 130.816667,44.7677601 C145.604131,44.7677601 162.422934,54.0706897 162.422934,66.5767914 Z" id="Path-36" fill="url(#linearGradient-2)"></path>
                    <path d="M126.009643,127.247218 C134.910736,138.729772 130.973353,161.191483 113.246293,165.901631 C101.428252,169.041729 89.2125548,146.805536 76.5992001,99.1930508 C103.605433,110.240792 120.07558,119.592181 126.009643,127.247218 Z" id="Path-37" fill="url(#linearGradient-3)"></path>
                    <path d="M59.0183639,192.500486 C44.3599814,197.73751 39.0367432,198.778285 41.6983623,211.44225 C44.3599814,224.106215 107.585065,214.495879 101.6456,203.498183 C95.7061341,192.500486 73.6767464,187.263463 59.0183639,192.500486 Z" id="Path-38" fill="url(#linearGradient-4)"></path>
                    <path d="M13.2539035,332.229294 C-5.1816965,335.889242 -0.110942395,343.425982 3.43003009,347.623325 C6.97100257,351.820669 34.1808823,387.953678 53.9657748,380.884567 C73.7506673,373.815456 80.7783151,347.383955 56.8042029,339.806625 C32.8300907,332.229294 31.6895035,328.569346 13.2539035,332.229294 Z" id="Path-39" fill="url(#linearGradient-5)"></path>
                    <path d="M191.260694,207.847988 C186.911736,218.10771 166.93429,217.953828 161.992056,207.847988 C157.049821,197.742147 172.754972,187.753085 176.626375,191.168227 C180.497778,194.583369 195.609653,197.588265 191.260694,207.847988 Z" id="Path-40" fill="url(#linearGradient-6)"></path>
                    <path d="M33.0532827,456.825792 C32.4401696,407.524542 34.232613,369.289749 38.4306128,342.121412 C41.0171475,325.382048 62.3558544,235.649477 82.7620659,177.213797 C112.035415,93.3859842 143.639476,44.7220968 146.804002,38.667841 C150.661867,31.2871116 153.850626,35.7466628 146.804002,44.7114301 C142.315061,50.4222938 124.610448,87.6034654 106.375861,131.034965 C89.2758348,171.764143 71.7439393,219.519002 66.8597837,242.622457 C64.0311901,256.002515 58.7641916,273.729866 53.3967648,294.978722 C53.2364123,295.613534 69.4148875,279.495074 102.255003,251.667893 C122.857341,234.210433 150.250783,209.81288 169.207586,194.506263 C184.462474,182.188748 193.722312,176.886601 193.640295,177.213797 C193.581607,177.450855 201.903557,173.483955 197.797002,177.213797 C186.869149,187.139188 160.83244,204.347004 134.676564,226.851122 C118.401096,240.854288 102.225212,257.488749 88.1433318,270.627171 C67.0201757,290.335118 51.1446046,304.100111 50.9995206,304.704809 C47.5874587,318.926011 44.2763563,334.531893 41.6742518,351.30769 C34.4149818,398.108289 42.9732314,438.852496 38.4306128,456.825792 C36.7021598,463.664577 34.9097165,463.664577 33.0532827,456.825792 Z" id="Path-24" fill="url(#linearGradient-7)"></path>
                    <path d="M153.761657,0.907291171 C146.074158,6.0181681 143.665048,35.1569509 146.832003,38.8073081 C149.998959,42.4576652 166.176843,43.1116012 169.00125,28.1973386 C171.825657,13.2830761 161.449155,-4.20358575 153.761657,0.907291171 Z" id="Path-25" fill="url(#linearGradient-8)"></path>
                    <path d="M135.398595,85.8902082 C123.292916,95.1430937 119.546923,82.033569 115.679366,69.3108515 C111.811809,56.5881341 102.773461,36.0882329 107.292635,27.9891725 C111.811809,19.890112 127.120324,38.8483558 129.809683,44.0635838 C132.499042,49.2788119 147.504274,76.6373228 135.398595,85.8902082 Z" id="Path-26" fill="url(#linearGradient-9)"></path>
                    <path d="M75.1085568,99.4224112 C68.0392295,105.009631 67.6699363,121.533699 71.3892465,130.034268 C75.1085568,138.534838 88.0688337,176.174563 115.127491,163.542505 C128.19757,157.440871 117.246197,144.803905 105.466487,130.034268 C92.85896,114.226697 78.7632035,96.5339728 75.1085568,99.4224112 Z" id="Path-27" fill="url(#linearGradient-10)"></path>
                    <path d="M41.4487022,205.752989 C37.3799984,214.623019 50.3102332,224.998504 57.2376173,224.998504 C64.1650015,224.998504 95.5508001,231.368169 109.08334,212.78094 C122.61588,194.193712 115.936589,178.097497 105.489715,184.470903 C99.4222677,188.172517 80.2447048,195.449968 64.3748649,199.546026 C52.9201633,202.502522 43.1543406,202.03459 41.4487022,205.752989 Z" id="Path-28" fill="url(#linearGradient-11)"></path>
                    <path d="M32.5458689,382.47059 C55.8464988,388.183604 65.8104739,376.951605 65.8104739,373.883434 C65.8104739,370.815263 42.3039148,349.162632 32.5458689,349.162632 C22.787823,349.162632 12.3529056,349.162632 3.44236059,341.062203 C-5.46818447,332.961773 9.24523901,376.757575 32.5458689,382.47059 Z" id="Path-29" fill="url(#linearGradient-12)"></path>
                    <path d="M49.6666324,301.7024 C33.5482261,292.423097 9.03890101,267.810337 29.3076776,252.059546 C38.5133845,244.905825 53.9422407,253.569477 60.6502163,255.835327 C68.7116073,258.558339 70.4229094,255.835327 76.4760522,255.835327 C82.529195,255.835327 86.1523977,273.729019 81.5640292,285.218214 C75.9993329,299.152116 58.5008157,306.788204 49.6666324,301.7024 Z" id="Path-30" fill="url(#linearGradient-13)"></path>
                    <path d="M90.8739352,321.992465 C79.6003674,327.607247 51.9094596,320.594058 51.9094596,302.91371 C51.9094596,285.233363 85.5126249,292.931986 95.9408595,297.922848 C106.369094,302.91371 102.147503,316.377682 90.8739352,321.992465 Z" id="Path-31" fill="url(#linearGradient-14)"></path>
                    <path d="M139.979945,259.426502 C134.560157,267.38458 111.646601,252.06011 111.646601,244.412236 C111.646601,240.651503 120.999518,240.823241 128.65163,244.412236 C136.560946,248.121866 142.734629,255.381697 139.979945,259.426502 Z" id="Path-32" fill="url(#linearGradient-15)"></path>
                    <path d="M168.718208,210.702764 C166.129642,215.263562 153.480268,206.141967 156.608278,191.259765 C159.736288,176.377564 149.478355,161.882582 171.306774,161.882582 C193.135192,161.882582 178.919129,192.083799 174.153206,196.347029 C169.387283,200.610259 171.306774,206.141967 168.718208,210.702764 Z" id="Path-33" fill="url(#linearGradient-16)"></path>
                    <path d="M207.835629,159.339973 C223.178541,162.599909 204.774866,183.066739 198.633792,183.066739 C192.492717,183.066739 192.492717,156.080037 207.835629,159.339973 Z" id="Path-34" fill="url(#linearGradient-17)"></path>
                </g>
                <path d="M199.328125,745.252005 C387.869642,745.252005 628.597356,492.074266 628.597356,317 C628.597356,141.925734 475.754257,0 287.21274,0 C98.6712235,0 0,210.925734 0,386 C0,561.074266 10.7866081,745.252005 199.328125,745.252005 Z" id="bottom-circle-bg" fill="#C9DFD3" opacity="0.149507068"></path>
            </g>
        </g>
    </g>
</svg>