<svg width="629" height="746" viewBox="0 0 629 746" fill="none" xmlns="http://www.w3.org/2000/svg">
<g clip-path="url(#clip0_526_379)">
<path opacity="0.149507" fill-rule="evenodd" clip-rule="evenodd" d="M199.5 745.252C388.042 745.252 628.769 492.074 628.769 317C628.769 141.926 475.926 0 287.385 0C98.8431 0 0.171875 210.926 0.171875 386C0.171875 561.074 10.9585 745.252 199.5 745.252Z" fill="#C9DFD3"/>
<g opacity="0.1">
<g style="mix-blend-mode:color-burn" opacity="0.7">
<path fill-rule="evenodd" clip-rule="evenodd" d="M184.469 275.289C177.179 263.856 190.376 241.792 199.931 240.38C209.486 238.968 211.232 248.266 216.871 254.586C222.51 260.907 230.689 275.797 221.521 278.001C212.354 280.205 191.76 286.721 184.469 275.289Z" fill="url(#paint0_linear_526_379)"/>
</g>
<g style="mix-blend-mode:color-burn" opacity="0.7">
<path fill-rule="evenodd" clip-rule="evenodd" d="M259.744 110.753C257.572 123.069 224.764 127.119 224.764 127.119C224.764 127.119 217.842 81.2193 232.405 83.7871C246.968 86.355 261.916 98.4371 259.744 110.753Z" fill="url(#paint1_linear_526_379)"/>
</g>
<g style="mix-blend-mode:color-burn" opacity="0.7">
<path fill-rule="evenodd" clip-rule="evenodd" d="M213.349 164.179C220.121 177.033 212.343 198.469 194.067 200.03C175.791 201.59 169.561 127.971 169.561 127.971C169.561 127.971 206.577 151.325 213.349 164.179Z" fill="url(#paint2_linear_526_379)"/>
</g>
<g style="mix-blend-mode:color-burn" opacity="0.7">
<path fill-rule="evenodd" clip-rule="evenodd" d="M136.044 216.808C120.699 219.42 115.276 219.521 115.698 232.454C116.12 245.388 180.053 246.903 176.114 235.041C172.174 223.179 151.389 214.196 136.044 216.808Z" fill="url(#paint3_linear_526_379)"/>
</g>
<g style="mix-blend-mode:color-burn" opacity="0.7">
<path fill-rule="evenodd" clip-rule="evenodd" d="M66.7113 346.467C47.9202 346.87 51.6052 355.173 54.3635 359.921C57.1218 364.67 77.6439 404.979 98.3558 401.453C119.068 397.926 130.578 373.117 108.284 361.492C85.9901 349.866 85.5024 346.064 66.7113 346.467Z" fill="url(#paint4_linear_526_379)"/>
</g>
<g style="mix-blend-mode:color-burn" opacity="0.7">
<path fill-rule="evenodd" clip-rule="evenodd" d="M263.612 254.886C257.548 264.235 237.901 260.614 234.788 249.803C231.676 238.993 248.877 231.883 252.097 235.918C255.316 239.954 269.677 245.537 263.612 254.886Z" fill="url(#paint5_linear_526_379)"/>
</g>
<path fill-rule="evenodd" clip-rule="evenodd" d="M64.5736 472.609C64.5736 472.609 76.5095 399.621 89.7875 360.581C95.2415 344.545 131.838 259.881 162.081 205.876C205.467 128.405 245.041 85.9689 249.209 80.5561C254.289 73.9574 256.655 78.9029 248.159 86.5079C242.747 91.3525 218.855 124.894 193.355 164.5C169.442 201.641 143.884 245.626 135.063 267.53C129.954 280.216 121.688 296.759 112.713 316.753C112.444 317.35 131.176 304.286 168.349 282.584C191.67 268.97 222.884 249.7 244.211 237.917C261.373 228.436 271.413 224.822 271.275 225.13C271.176 225.354 280.06 222.892 275.369 225.852C262.883 233.729 234.254 246.154 204.588 263.775C186.128 274.739 167.309 288.312 151.16 298.805C126.935 314.546 108.911 325.345 108.663 325.915C102.833 339.328 96.8623 354.122 91.3867 370.191C76.1108 415.02 77.4639 456.631 69.8693 473.542C65.5347 483.195 64.5736 472.609 64.5736 472.609Z" fill="url(#paint6_linear_526_379)"/>
<path fill-rule="evenodd" clip-rule="evenodd" d="M262.618 44.5774C254.16 48.2757 246.727 76.5535 249.212 80.6983C251.697 84.8431 267.516 88.2964 272.887 74.0992C278.258 59.9019 271.076 40.8791 262.618 44.5774Z" fill="url(#paint7_linear_526_379)"/>
<path fill-rule="evenodd" clip-rule="evenodd" d="M229.777 125.081C216.248 132.091 214.835 118.53 213.236 105.329C211.636 92.1278 206.295 70.3698 212.152 63.1786C218.009 55.9873 229.793 77.3158 231.536 82.9188C233.279 88.5218 243.305 118.07 229.777 125.081Z" fill="url(#paint8_linear_526_379)"/>
<path fill-rule="evenodd" clip-rule="evenodd" d="M168.053 127.938C160.121 132.213 156.888 148.422 159.074 157.439C161.261 166.456 167.488 205.775 196.329 198.033C210.26 194.294 201.67 179.947 192.634 163.356C182.963 145.6 172.153 125.728 168.053 127.938Z" fill="url(#paint9_linear_526_379)"/>
<path fill-rule="evenodd" clip-rule="evenodd" d="M116.44 226.808C110.893 234.837 121.825 247.3 128.647 248.503C135.469 249.706 165.272 261.429 181.827 245.474C198.381 229.519 194.599 212.507 183.204 216.97C176.586 219.562 156.436 223.398 140.096 224.677C128.302 225.599 118.765 223.442 116.44 226.808Z" fill="url(#paint10_linear_526_379)"/>
<path fill-rule="evenodd" clip-rule="evenodd" d="M76.9855 399.295C98.9401 408.967 110.703 399.636 111.236 396.615C111.769 393.593 92.3792 368.188 82.7694 366.493C73.1596 364.799 62.8832 362.987 55.5146 353.462C48.1461 343.937 55.0309 389.623 76.9855 399.295Z" fill="url(#paint11_linear_526_379)"/>
<path fill-rule="evenodd" clip-rule="evenodd" d="M107.871 322.727C93.6093 310.79 73.7463 282.295 96.4422 270.303C106.75 264.856 120.44 276.068 126.653 279.464C134.119 283.545 136.277 281.161 142.238 282.212C148.2 283.263 148.66 301.514 142.147 312.032C134.247 324.788 115.688 329.269 107.871 322.727Z" fill="url(#paint12_linear_526_379)"/>
<path fill-rule="evenodd" clip-rule="evenodd" d="M144.929 349.864C132.852 353.436 106.8 341.721 109.87 324.309C112.94 306.897 144.696 320.314 154.099 327.04C163.502 333.766 157.007 346.292 144.929 349.864Z" fill="url(#paint13_linear_526_379)"/>
<path fill-rule="evenodd" clip-rule="evenodd" d="M204.154 296.776C197.435 303.672 177.53 284.601 178.858 277.07C179.511 273.366 188.692 275.159 195.605 280.023C202.75 285.049 207.569 293.271 204.154 296.776Z" fill="url(#paint14_linear_526_379)"/>
<path fill-rule="evenodd" clip-rule="evenodd" d="M240.916 253.783C237.575 257.825 226.702 246.645 232.367 232.532C238.031 218.419 230.446 202.363 251.943 206.154C273.44 209.944 254.195 237.218 248.762 240.589C243.328 243.96 244.258 249.741 240.916 253.783Z" fill="url(#paint15_linear_526_379)"/>
<path fill-rule="evenodd" clip-rule="evenodd" d="M288.358 209.993C302.902 215.868 281.224 232.828 275.176 231.761C269.129 230.695 273.815 204.118 288.358 209.993Z" fill="url(#paint16_linear_526_379)"/>
</g>
</g>
<defs>
<linearGradient id="paint0_linear_526_379" x1="245.865" y1="252.5" x2="189.991" y2="217.445" gradientUnits="userSpaceOnUse">
<stop stop-color="#204F35"/>
<stop offset="1" stop-color="#2C6E49"/>
</linearGradient>
<linearGradient id="paint1_linear_526_379" x1="276.927" y1="96.5134" x2="224.713" y2="67.6136" gradientUnits="userSpaceOnUse">
<stop stop-color="#204F35"/>
<stop offset="1" stop-color="#2C6E49"/>
</linearGradient>
<linearGradient id="paint2_linear_526_379" x1="241.173" y1="148.023" x2="167.1" y2="109.705" gradientUnits="userSpaceOnUse">
<stop stop-color="#204F35"/>
<stop offset="1" stop-color="#2C6E49"/>
</linearGradient>
<linearGradient id="paint3_linear_526_379" x1="200.511" y1="229.091" x2="154.003" y2="171.216" gradientUnits="userSpaceOnUse">
<stop stop-color="#204F35"/>
<stop offset="1" stop-color="#2C6E49"/>
</linearGradient>
<linearGradient id="paint4_linear_526_379" x1="150.117" y1="365.372" x2="70.3548" y2="301.487" gradientUnits="userSpaceOnUse">
<stop stop-color="#204F35"/>
<stop offset="1" stop-color="#2C6E49"/>
</linearGradient>
<linearGradient id="paint5_linear_526_379" x1="278.231" y1="242.603" x2="241.508" y2="216.239" gradientUnits="userSpaceOnUse">
<stop stop-color="#204F35"/>
<stop offset="1" stop-color="#2C6E49"/>
</linearGradient>
<linearGradient id="paint6_linear_526_379" x1="236.399" y1="-90.0325" x2="-56.3863" y2="-0.0495434" gradientUnits="userSpaceOnUse">
<stop stop-color="#3F8E62"/>
<stop offset="1" stop-color="#2C6E49"/>
</linearGradient>
<linearGradient id="paint7_linear_526_379" x1="253.997" y1="46.7915" x2="255.849" y2="82.7286" gradientUnits="userSpaceOnUse">
<stop stop-color="#6CC48A"/>
<stop offset="1" stop-color="#4C956C"/>
</linearGradient>
<linearGradient id="paint8_linear_526_379" x1="210.308" y1="67.9909" x2="214.151" y2="122.907" gradientUnits="userSpaceOnUse">
<stop stop-color="#6CC48A"/>
<stop offset="1" stop-color="#4C956C"/>
</linearGradient>
<linearGradient id="paint9_linear_526_379" x1="161.23" y1="134.025" x2="161.062" y2="193.477" gradientUnits="userSpaceOnUse">
<stop stop-color="#6CC48A"/>
<stop offset="1" stop-color="#4C956C"/>
</linearGradient>
<linearGradient id="paint10_linear_526_379" x1="119.346" y1="209.152" x2="115.548" y2="247.578" gradientUnits="userSpaceOnUse">
<stop stop-color="#6CC48A"/>
<stop offset="1" stop-color="#4C956C"/>
</linearGradient>
<linearGradient id="paint11_linear_526_379" x1="52.7225" y1="356.954" x2="49.4245" y2="396.278" gradientUnits="userSpaceOnUse">
<stop stop-color="#6CC48A"/>
<stop offset="1" stop-color="#4C956C"/>
</linearGradient>
<linearGradient id="paint12_linear_526_379" x1="88.7801" y1="272.264" x2="85.9881" y2="320.484" gradientUnits="userSpaceOnUse">
<stop stop-color="#6CC48A"/>
<stop offset="1" stop-color="#4C956C"/>
</linearGradient>
<linearGradient id="paint13_linear_526_379" x1="111.533" y1="317.039" x2="108.993" y2="345.639" gradientUnits="userSpaceOnUse">
<stop stop-color="#6CC48A"/>
<stop offset="1" stop-color="#4C956C"/>
</linearGradient>
<linearGradient id="paint14_linear_526_379" x1="179.163" y1="276.595" x2="177.695" y2="294.47" gradientUnits="userSpaceOnUse">
<stop stop-color="#6CC48A"/>
<stop offset="1" stop-color="#4C956C"/>
</linearGradient>
<linearGradient id="paint15_linear_526_379" x1="236.21" y1="209.057" x2="239.255" y2="252.643" gradientUnits="userSpaceOnUse">
<stop stop-color="#6CC48A"/>
<stop offset="1" stop-color="#4C956C"/>
</linearGradient>
<linearGradient id="paint16_linear_526_379" x1="275.24" y1="210.127" x2="275.109" y2="231.435" gradientUnits="userSpaceOnUse">
<stop stop-color="#6CC48A"/>
<stop offset="1" stop-color="#4C956C"/>
</linearGradient>
<clipPath id="clip0_526_379">
<rect width="629" height="746" fill="white"/>
</clipPath>
</defs>
</svg>
