<?xml version="1.0" encoding="UTF-8"?>
<svg width="490px" height="512px" viewBox="0 0 490 512" version="1.1" xmlns="http://www.w3.org/2000/svg" xmlns:xlink="http://www.w3.org/1999/xlink">
    <title>greenLeafs</title>
    <defs>
        <linearGradient x1="51.9034303%" y1="-6.78122397%" x2="47.7765078%" y2="70.5557932%" id="linearGradient-1">
            <stop stop-color="#6CC48A" offset="0%"></stop>
            <stop stop-color="#4C956C" offset="100%"></stop>
        </linearGradient>
        <linearGradient x1="51.9034303%" y1="-6.78122397%" x2="47.7765078%" y2="70.5557932%" id="linearGradient-2">
            <stop stop-color="#2C6E49" offset="0%"></stop>
            <stop stop-color="#2C6E49" offset="100%"></stop>
        </linearGradient>
        <linearGradient x1="83.0751509%" y1="11.5400316%" x2="43.3078031%" y2="69.3338058%" id="linearGradient-3">
            <stop stop-color="#6CC48A" offset="0%"></stop>
            <stop stop-color="#4C956C" offset="100%"></stop>
        </linearGradient>
        <linearGradient x1="83.0751509%" y1="11.5400316%" x2="43.3078031%" y2="69.3338058%" id="linearGradient-4">
            <stop stop-color="#2C6E49" offset="0%"></stop>
            <stop stop-color="#2C6E49" offset="100%"></stop>
        </linearGradient>
        <linearGradient x1="57.8899051%" y1="3.8050261e-14%" x2="44.53469%" y2="106.311512%" id="linearGradient-5">
            <stop stop-color="#6CC48A" offset="0%"></stop>
            <stop stop-color="#4C956C" offset="100%"></stop>
        </linearGradient>
        <linearGradient x1="57.8899051%" y1="3.8050261e-14%" x2="44.53469%" y2="106.311512%" id="linearGradient-6">
            <stop stop-color="#2C6E49" offset="0%"></stop>
            <stop stop-color="#2C6E49" offset="100%"></stop>
        </linearGradient>
        <linearGradient x1="58.3569227%" y1="3.8050261e-14%" x2="44.2111885%" y2="106.311512%" id="linearGradient-7">
            <stop stop-color="#6CC48A" offset="0%"></stop>
            <stop stop-color="#4C956C" offset="100%"></stop>
        </linearGradient>
        <linearGradient x1="58.3569227%" y1="3.8050261e-14%" x2="44.2111885%" y2="106.311512%" id="linearGradient-8">
            <stop stop-color="#2C6E49" offset="0%"></stop>
            <stop stop-color="#2C6E49" offset="100%"></stop>
        </linearGradient>
        <linearGradient x1="90.9349708%" y1="22.1151307%" x2="21.6444871%" y2="81.4047831%" id="linearGradient-9">
            <stop stop-color="#6CC48A" offset="0%"></stop>
            <stop stop-color="#4C956C" offset="100%"></stop>
        </linearGradient>
        <linearGradient x1="90.9349708%" y1="22.1151307%" x2="21.6444871%" y2="81.4047831%" id="linearGradient-10">
            <stop stop-color="#2C6E49" offset="0%"></stop>
            <stop stop-color="#2C6E49" offset="100%"></stop>
        </linearGradient>
        <linearGradient x1="47.6512051%" y1="-12.3669564%" x2="42.8318973%" y2="79.2140837%" id="linearGradient-11">
            <stop stop-color="#6CC48A" offset="0%"></stop>
            <stop stop-color="#4C956C" offset="100%"></stop>
        </linearGradient>
        <linearGradient x1="47.6512051%" y1="-12.3669564%" x2="42.8318973%" y2="79.2140837%" id="linearGradient-12">
            <stop stop-color="#2C6E49" offset="0%"></stop>
            <stop stop-color="#2C6E49" offset="100%"></stop>
        </linearGradient>
        <linearGradient x1="90.9349708%" y1="36.8828079%" x2="21.6444871%" y2="64.7729785%" id="linearGradient-13">
            <stop stop-color="#6CC48A" offset="0%"></stop>
            <stop stop-color="#4C956C" offset="100%"></stop>
        </linearGradient>
        <linearGradient x1="90.9349708%" y1="36.8828079%" x2="21.6444871%" y2="64.7729785%" id="linearGradient-14">
            <stop stop-color="#2C6E49" offset="0%"></stop>
            <stop stop-color="#2C6E49" offset="100%"></stop>
        </linearGradient>
        <linearGradient x1="69.0916223%" y1="3.8050261e-14%" x2="36.7752992%" y2="106.311512%" id="linearGradient-15">
            <stop stop-color="#6CC48A" offset="0%"></stop>
            <stop stop-color="#4C956C" offset="100%"></stop>
        </linearGradient>
        <linearGradient x1="69.0916223%" y1="3.8050261e-14%" x2="36.7752992%" y2="106.311512%" id="linearGradient-16">
            <stop stop-color="#2C6E49" offset="0%"></stop>
            <stop stop-color="#2C6E49" offset="100%"></stop>
        </linearGradient>
        <linearGradient x1="100%" y1="24.7625744%" x2="42.9874922%" y2="62.7044454%" id="linearGradient-17">
            <stop stop-color="#6CC48A" offset="0%"></stop>
            <stop stop-color="#4C956C" offset="100%"></stop>
        </linearGradient>
        <linearGradient x1="100%" y1="24.7625744%" x2="42.9874922%" y2="62.7044454%" id="linearGradient-18">
            <stop stop-color="#2C6E49" offset="0%"></stop>
            <stop stop-color="#2C6E49" offset="100%"></stop>
        </linearGradient>
        <linearGradient x1="46.3684043%" y1="-18.5600694%" x2="41.5791231%" y2="74.985472%" id="linearGradient-19">
            <stop stop-color="#6CC48A" offset="0%"></stop>
            <stop stop-color="#4C956C" offset="100%"></stop>
        </linearGradient>
        <linearGradient x1="46.3684043%" y1="-18.5600694%" x2="41.5791231%" y2="74.985472%" id="linearGradient-20">
            <stop stop-color="#2C6E49" offset="0%"></stop>
            <stop stop-color="#2C6E49" offset="100%"></stop>
        </linearGradient>
        <linearGradient x1="79.1807415%" y1="29.1373084%" x2="41.0783651%" y2="57.7304538%" id="linearGradient-21">
            <stop stop-color="#6CC48A" offset="0%"></stop>
            <stop stop-color="#4C956C" offset="100%"></stop>
        </linearGradient>
        <linearGradient x1="79.1807415%" y1="29.1373084%" x2="41.0783651%" y2="57.7304538%" id="linearGradient-22">
            <stop stop-color="#2C6E49" offset="0%"></stop>
            <stop stop-color="#2C6E49" offset="100%"></stop>
        </linearGradient>
        <linearGradient x1="57.1089594%" y1="1.00485556e-14%" x2="44.5814749%" y2="99.847028%" id="linearGradient-23">
            <stop stop-color="#3F8E62" offset="0%"></stop>
            <stop stop-color="#2C6E49" offset="100%"></stop>
        </linearGradient>
        <linearGradient x1="57.1089594%" y1="1.00485556e-14%" x2="44.5814749%" y2="99.847028%" id="linearGradient-24">
            <stop stop-color="#2C6E49" offset="0%"></stop>
            <stop stop-color="#2C6E49" offset="100%"></stop>
        </linearGradient>
    </defs>
    <g id="Save-the-date" stroke="none" stroke-width="1" fill="none" fill-rule="evenodd">
        <g id="Save-the-Date-export" transform="translate(-975.000000, -93.000000)">
            <g id="greenLeafs" transform="translate(1220.172887, 349.033663) scale(-1, -1) rotate(319.000000) translate(-1220.172887, -349.033663) translate(1096.964031, 117.785594)">
                <path d="M147.951754,34.0472027 C143.05339,36.7219511 143.05339,49.81127 147.951754,73.3151595 C158.101007,100.984014 165.328682,116.476293 169.634781,119.791995 C176.093928,124.765548 173.430581,94.6533655 173.430581,92.7721053 C173.430581,90.890845 169.39997,65.0172764 165.132698,54.5524773 C160.865427,44.0876782 155.2993,30.03508 147.951754,34.0472027 Z" id="Path" fill="url(#linearGradient-2)" transform="translate(159.126295, 76.845803) rotate(-2.000000) translate(-159.126295, -76.845803) "></path>
                <path d="M244.753306,75.9225593 C249.019653,84.2001044 221.948127,98.2396486 218.074672,101.068472 C214.201218,103.897296 192.0553,120.62233 177.745705,120.62233 C172.270138,120.62233 177.056661,114.889793 181.417661,109.619606 C188.4535,101.116927 196.695395,91.5579436 200.3712,88.603155 C203.407392,86.1625175 215.996219,77.8015006 225.039644,74.6079776 C233.730951,71.5387989 242.662486,71.8659609 244.753306,75.9225593 Z" id="Path-2" fill="url(#linearGradient-4)" transform="translate(210.249662, 96.589953) rotate(3.000000) translate(-210.249662, -96.589953) "></path>
                <path d="M214.509572,4.59420193e-14 C216.670002,4.59420193e-14 218.764779,1.99048464 218.877679,6.72397676 C219.139382,17.6962573 211.22797,40.8236905 208.352203,46.2213524 C205.476437,51.6190144 193.359523,79.5187695 187.08761,81.7601906 C185.090342,82.4739629 183.96594,81.5268318 183.372629,79.8136386 C182.102797,76.1469831 183.709271,68.1613366 183.709271,65.5322398 C183.709271,61.6747344 186.197213,43.0585808 189.279127,34.4747867 C192.361041,25.8909925 196.240118,13.5999739 200.896253,8.09827136 C205.552387,2.59656883 207.341246,4.59420193e-14 214.509572,4.59420193e-14 Z" id="Path-3" fill="url(#linearGradient-6)"></path>
                <path d="M149.285649,177.420835 C157.111288,182.339878 153.108796,163.018477 153.108796,154.050791 C153.108796,145.083105 144.077208,117.186983 135.227778,109.173431 C126.378349,101.159878 124.047735,101.7328 120.763721,104.720804 C117.479707,107.708809 125.834074,132.696988 128.257237,137.8452 C130.680399,142.993411 141.46001,172.501792 149.285649,177.420835 Z" id="Path-4" fill="url(#linearGradient-8)" transform="translate(137.070734, 140.449463) rotate(-6.000000) translate(-137.070734, -140.449463) "></path>
                <path d="M232.555592,126.407383 C235.434153,135.177485 225.728423,144.802587 216.136991,151.018782 C206.545559,157.234977 188.614002,172.661958 171.497614,176.586468 C154.381225,180.510978 160.421871,175.245245 165.118356,169.685705 C169.814841,164.126166 180.394847,149.951939 195.62523,140.177734 C210.855613,130.403528 229.67703,117.637281 232.555592,126.407383 Z" id="Path-5" fill="url(#linearGradient-10)" transform="translate(196.598977, 150.710632) scale(-1, 1) rotate(-115.000000) translate(-196.598977, -150.710632) "></path>
                <path d="M107.770014,202.775086 C103.315919,193.503311 91.9948488,170.571037 93.9648164,160.89381 C95.934784,151.216583 104.934789,157.371079 106.352402,159.83464 C107.770014,162.298201 122.842984,181.385292 124.970873,187.642621 C127.098761,193.899949 138.130432,222.742125 138.130432,231.712015 C138.130432,240.681905 136.217757,237.149625 132.44676,233.58723 C128.675763,230.024836 112.22411,212.046861 107.770014,202.775086 Z" id="Path-6" fill="url(#linearGradient-12)" transform="translate(115.933637, 196.499264) rotate(4.000000) translate(-115.933637, -196.499264) "></path>
                <path d="M157.806547,212.266997 C162.10748,209.226514 175.204564,199.946904 186.916086,198.096468 C198.627609,196.246033 213.696928,193.95604 215.752137,203.111519 C217.807347,212.266997 190.006993,224.356064 181.710903,226.976462 C173.414814,229.59686 147.218309,241.379671 136.347405,237.707363 C125.476501,234.035055 153.505614,215.30748 157.806547,212.266997 Z" id="Path-7" fill="url(#linearGradient-14)"></path>
                <path d="M56.8150102,250.069065 C52.2592691,243.497143 48.3407022,232.266381 52.513729,231.003719 C56.6867559,229.741056 59.9407771,228.05723 71.7857041,236.416588 C83.6306311,244.775946 89.7489404,255.626473 96.8606956,271.085738 C103.972451,286.545002 108.141866,307.995346 106.310856,311.466057 C104.479846,314.936768 89.427695,299.122035 82.2020096,289.50136 C74.9763243,279.880686 61.3707514,256.640988 56.8150102,250.069065 Z" id="Path-8" fill="url(#linearGradient-16)"></path>
                <path d="M139.439737,279.01374 C146.122349,275.450607 167.564006,267.160187 177.912866,267.160187 C188.261727,267.160187 187.376095,269.930195 187.376095,277.517001 C187.376095,285.103808 157.228941,297.930442 151.908119,300.689281 C146.587297,303.448119 108.958814,313.987677 99.5328129,311.846565 C90.1068123,309.705454 132.757125,282.576873 139.439737,279.01374 Z" id="Path-9" fill="url(#linearGradient-18)" transform="translate(142.787032, 289.645835) rotate(-5.000000) translate(-142.787032, -289.645835) "></path>
                <path d="M15.9288293,339.680264 C8.90691267,327.085059 -3.09490616,305.963038 0.738006647,294.620888 C4.57091945,283.278739 15.9169522,288.091369 20.6364064,293.567423 C25.3558605,299.043476 47.4031686,322.09322 52.243939,333.318708 C57.0847094,344.544197 70.9987428,379.991664 70.9987428,387.680066 C70.9987428,395.368468 71.2591908,399.491672 61.1958859,390.978208 C51.1325809,382.464743 22.9507459,352.275468 15.9288293,339.680264 Z" id="Path-10" fill="url(#linearGradient-20)"></path>
                <path d="M107.754544,360.533655 C116.082482,355.417278 139.543187,340.82781 163.658334,340.82781 C187.773482,340.82781 192.552326,342.547519 195.043157,348.844804 C197.533987,355.142089 189.904857,365.649141 156.479202,376.655809 C123.053547,387.662477 92.8866975,398.310331 75.0896208,396.657416 C57.2925441,395.004501 80.4760466,376.952029 85.7501599,374.075459 C91.0242732,371.198888 99.4266048,365.650032 107.754544,360.533655 Z" id="Path-11" fill="url(#linearGradient-22)"></path>
                <path d="M185.211368,78.7688823 C186.001136,78.1982285 187.754181,78.4804534 187.754181,80.021225 C187.754181,81.5619965 186.514715,84.2650747 184.960238,89.3942744 C182.735276,96.7358237 175.922159,118.165556 164.520885,153.68347 C156.709142,178.443223 150.220482,198.069011 145.054903,212.560835 C138.99057,229.57408 132.509598,248.038361 124.719813,267.558233 C116.464867,288.243717 107.030079,313.578765 94.2878858,343.467979 C79.6426647,377.821102 41.8482081,460.983842 38.8840594,462.240888 C35.9199106,463.497935 31.7541812,459.895328 31.7541812,456.176999 C31.7541812,452.458671 70.7174797,373.832596 85.1041757,341.753489 C99.4932428,309.669095 110.117075,283.699445 117.711685,265.641493 C126.330246,245.148859 134.209634,225.53664 140.514558,207.590752 C144.830937,195.304916 147.839317,183.826582 152.106112,173.276057 C159.135528,155.894386 163.717908,139.533578 168.562991,126.935033 C172.678793,116.232819 175.480313,107.475459 178.080109,99.917295 C179.783606,94.9648648 180.769904,91.4367033 181.990503,87.2521185 C183.055025,83.602613 184.4216,79.3395361 185.211368,78.7688823 Z" id="Rectangle" fill="url(#linearGradient-24)"></path>
            </g>
        </g>
    </g>
</svg>