<svg width="343" height="534" viewBox="0 0 343 534" fill="none" xmlns="http://www.w3.org/2000/svg">
<g opacity="0.06">
<path fill-rule="evenodd" clip-rule="evenodd" d="M-4.17188 528.036C-4.17188 538.508 6.38928 534.872 6.38928 519.62C6.38928 504.368 38.8697 416.672 48.9845 396.195C49.1505 395.859 57.5388 390.788 70.1502 385.568C73.514 384.176 77.1934 382.8 81.0391 381.395C82.1982 380.972 95.6478 382.039 109.924 383.992C118.957 385.228 128.839 385.552 134.716 385.568C139.289 385.58 136.3 381.612 136.893 381.395C138.211 380.913 122.129 380.502 109.924 379.235C100.804 378.288 94.5498 376.432 95.5423 376.051C100.038 374.325 104.516 372.491 108.767 370.484C123.858 363.358 136.199 354.827 142.7 351.25C145.4 349.765 138.464 346.054 138.565 345.839C138.926 345.067 128.926 354.233 113.502 361.621C102.933 366.683 89.9343 371.702 79.6243 376.267C68.9879 380.976 53.6399 386.283 53.9687 385.568C63.1015 365.696 80.1987 327.787 99.4121 293.013C102.417 287.574 105.568 282.261 108.767 277.115C109.837 275.393 136.279 264.597 144.892 258.455C146.96 256.981 147.015 252.451 147.274 252.049C147.82 251.202 134.921 257.862 127.523 261.727C121.043 265.112 115.359 266.814 115.836 266.09C125.423 251.55 134.797 238.767 141.371 228.839C151.969 212.835 163.503 195.139 173.973 178.944C174.439 178.224 182.317 172.909 189.125 170.24C198.701 166.486 210.273 163.647 216.984 163.647C223.696 163.647 231.236 155.056 215.619 156.919C200.002 158.783 181.064 167.954 182.508 165.71C195.503 145.508 205.587 129.597 207.966 125.615C212.623 117.821 208.105 114.506 202.709 122.988C199.649 127.798 177.459 161.241 157.925 190.132C156.779 191.827 158.391 171.421 160.589 153.505C162.452 138.315 165.057 125.4 163.4 124.195C161.839 123.06 157.375 130.725 154.405 147.951C150.504 170.586 148.088 204.62 147.274 205.811C137.08 220.733 129.12 232.083 127.523 233.574C123.774 237.074 95.9404 283.433 81.3553 309.511C80.6097 310.844 77.2214 297.254 75.0187 274.529C74.5782 269.983 71.2519 250.771 72.7363 247.372C74.2206 243.974 84.5636 238.017 87.1268 233.574C88.0666 231.945 88.466 226.898 88.4208 225.605C88.3306 223.024 73.1715 239.902 73.0938 237.388C72.9667 233.269 72.8522 229.288 72.7363 225.605C71.7538 194.381 75.6662 169.01 75.0187 170.24C74.8077 170.641 69.1418 157.241 68.9746 162.29C68.3534 181.049 64.7289 219.474 66.0163 259.703C66.3244 269.331 67.1112 280.889 68.9746 290.989C69.483 293.745 44.4322 266.679 45.2048 269.115C45.3769 269.657 42.7815 275.216 45.2048 278.336C52.8899 288.232 72.5368 303.67 72.7363 305.289C74.3234 318.171 72.8201 325.779 72.7363 326C68.9936 335.892 33.159 406.338 17.6769 452.273C2.19482 498.207 -4.17187 517.565 -4.17188 528.036Z" fill="url(#paint0_linear_0_97)"/>
<path fill-rule="evenodd" clip-rule="evenodd" d="M15.8025 198.725C22.2422 204.958 37.0031 232.151 40.2654 238.393C43.5277 244.635 47.304 268.58 47.304 273.144C47.304 277.707 56.6203 281.839 29.1865 276.442C1.75276 271.045 1.24236 232.594 1.24236 223.493C1.24236 214.393 -3.08675 198.105 -0.150843 193.158C2.78506 188.21 9.36277 192.492 15.8025 198.725Z" fill="url(#paint1_linear_0_97)"/>
<path fill-rule="evenodd" clip-rule="evenodd" d="M138.819 158.712C141.626 160.53 138.113 171.325 133.958 187.538C129.803 203.751 133.903 201.743 123.097 214.561C116.953 221.85 105.426 227.669 90.9697 232.859C81.0174 236.432 83.9822 231.259 85.2122 222.311C86.437 213.4 89.5672 197.962 96.7031 187.538C104.711 175.84 115.434 172.927 123.097 164.866C129.226 158.42 136.011 156.894 138.819 158.712Z" fill="url(#paint2_linear_0_97)"/>
<path fill-rule="evenodd" clip-rule="evenodd" d="M72.9102 42C84.3413 42 100.153 58.0697 102.728 68.6048C105.303 79.1399 110.738 127.458 95.6588 144.504C80.5796 161.55 76.7467 169.915 72.9102 172.665C69.0737 175.416 55.6758 161.027 53.2086 136.611C50.7415 112.195 60.9639 98.8037 63.9882 84.3696C67.0124 69.9355 61.4791 42 72.9102 42Z" fill="url(#paint3_linear_0_97)"/>
<path fill-rule="evenodd" clip-rule="evenodd" d="M164.9 0C173.843 0 186.984 27.9394 190.766 41.436C194.548 54.9326 195.139 76.9548 190.766 92.3126C185.692 110.132 179.761 125.162 170.643 130.869C153.668 141.497 158.193 130.871 143.179 107.551C128.165 84.2311 149.081 62.8585 153.25 47.8986C157.419 32.9386 155.957 0 164.9 0Z" fill="url(#paint4_linear_0_97)"/>
<path fill-rule="evenodd" clip-rule="evenodd" d="M311.124 26.1832C307.814 35.3071 289.336 67.5853 270.816 85.3736C252.297 103.162 227.025 125 206.756 125C198.327 125 210.347 99.2375 214.63 85.3736C220.646 65.9006 227.027 54.2616 264.568 31.3884C328.837 -7.76957 314.435 17.0592 311.124 26.1832Z" fill="url(#paint5_linear_0_97)"/>
<path fill-rule="evenodd" clip-rule="evenodd" d="M342.828 131.67C342.828 137.679 329.718 147.947 307.674 161.417C285.63 174.887 277.162 183.46 245.034 173.995C212.906 164.53 201.624 164.619 222.204 150.5C242.784 136.381 244.731 123 281.457 123C318.183 123 342.828 125.661 342.828 131.67Z" fill="url(#paint6_linear_0_97)"/>
<path fill-rule="evenodd" clip-rule="evenodd" d="M235.237 180.583C245.744 188.662 230.926 203.889 219.894 223.757C208.861 243.625 176.914 255.751 144.974 257.99C138.404 258.451 148.871 242.431 150.423 236.847C152.75 228.479 154.94 223.757 166.051 213.876C189.433 193.081 230.13 176.657 235.237 180.583Z" fill="url(#paint7_linear_0_97)"/>
<path fill-rule="evenodd" clip-rule="evenodd" d="M274.731 272.661C276.707 279.795 248.107 304.413 235.897 313.966C229.699 318.815 214.95 331.925 196.821 337.711C179.234 343.325 176.999 340.967 162.417 344.65C147.835 348.334 140.336 357.063 136.692 352.899C133.048 348.735 133.435 344.443 150.039 328.208C166.642 311.972 183.423 283.352 210.834 276.621C238.245 269.891 272.755 265.526 274.731 272.661Z" fill="url(#paint8_linear_0_97)"/>
<path fill-rule="evenodd" clip-rule="evenodd" d="M253.828 377.647C253.828 387.675 217.536 406 189.988 406C179.556 406 170.107 401.812 160.803 398.852C145.538 393.995 132.828 388.701 132.828 382.916C132.828 373.607 164.415 360.31 188.648 358.164C200.489 357.116 214.539 361.281 227.635 365.01C241.339 368.912 253.828 372.519 253.828 377.647Z" fill="url(#paint9_linear_0_97)"/>
</g>
<defs>
<linearGradient id="paint0_linear_0_97" x1="94.6437" y1="-39.8848" x2="-216.701" y2="185.561" gradientUnits="userSpaceOnUse">
<stop stop-color="#3F8E62"/>
<stop offset="1" stop-color="#2C6E49"/>
</linearGradient>
<linearGradient id="paint1_linear_0_97" x1="-19.1529" y1="236.854" x2="49.128" y2="274.893" gradientUnits="userSpaceOnUse">
<stop stop-color="#6CC48A"/>
<stop offset="1" stop-color="#367F56"/>
</linearGradient>
<linearGradient id="paint2_linear_0_97" x1="107.277" y1="123.445" x2="39.7499" y2="177.135" gradientUnits="userSpaceOnUse">
<stop stop-color="#6CC48A"/>
<stop offset="1" stop-color="#398359"/>
</linearGradient>
<linearGradient id="paint3_linear_0_97" x1="74.5237" y1="8.04195" x2="-6.09028" y2="70.951" gradientUnits="userSpaceOnUse">
<stop stop-color="#6CC48A"/>
<stop offset="1" stop-color="#3B865C"/>
</linearGradient>
<linearGradient id="paint4_linear_0_97" x1="158.984" y1="-46.7711" x2="66.3583" y2="12.1804" gradientUnits="userSpaceOnUse">
<stop stop-color="#6CC48A"/>
<stop offset="1" stop-color="#3E8B60"/>
</linearGradient>
<linearGradient id="paint5_linear_0_97" x1="249.266" y1="-42.2876" x2="144.405" y2="69.016" gradientUnits="userSpaceOnUse">
<stop stop-color="#6CC48A"/>
<stop offset="1" stop-color="#3F8D61"/>
</linearGradient>
<linearGradient id="paint6_linear_0_97" x1="266.683" y1="97.9929" x2="232.782" y2="185.12" gradientUnits="userSpaceOnUse">
<stop stop-color="#6CC48A"/>
<stop offset="1" stop-color="#398359"/>
</linearGradient>
<linearGradient id="paint7_linear_0_97" x1="183.027" y1="144.535" x2="114.662" y2="235.327" gradientUnits="userSpaceOnUse">
<stop stop-color="#6CC48A"/>
<stop offset="1" stop-color="#398359"/>
</linearGradient>
<linearGradient id="paint8_linear_0_97" x1="192.137" y1="230.353" x2="126.43" y2="349.364" gradientUnits="userSpaceOnUse">
<stop stop-color="#6CC48A"/>
<stop offset="1" stop-color="#357D55"/>
</linearGradient>
<linearGradient id="paint9_linear_0_97" x1="210.46" y1="336.176" x2="164.206" y2="404.842" gradientUnits="userSpaceOnUse">
<stop stop-color="#6CC48A"/>
<stop offset="1" stop-color="#347B53"/>
</linearGradient>
</defs>
</svg>
