<?xml version="1.0" encoding="UTF-8"?>
<svg width="414px" height="398px" viewBox="0 0 414 398" version="1.1" xmlns="http://www.w3.org/2000/svg" xmlns:xlink="http://www.w3.org/1999/xlink">
    <title>lines</title>
    <g id="Save-the-date" stroke="none" stroke-width="1" fill="none" fill-rule="evenodd">
        <g id="Save-the-Date-export" transform="translate(-771.000000, -1510.000000)" fill="#F6FAF7" fill-rule="nonzero">
            <g id="lines" transform="translate(978.131906, 1709.384420) rotate(6.000000) translate(-978.131906, -1709.384420) translate(789.455398, 1529.731959)">
                <path d="M318.25242,63.3927707 C316.180132,76.795129 317.505685,88.8813117 317.885959,100.884407 C318.286229,113.635224 317.75822,126.360435 318.180704,139.104857 C319.036503,164.904102 318.742115,190.759023 320.129321,216.522339 C321.264912,237.525275 321.345577,258.498126 321.609232,279.499588 C321.739876,289.77973 323.534442,300.044267 324.591038,310.310875 C325.825032,322.306239 327.165442,334.29457 327.04098,346.377315 C327.015229,349.107494 327.377827,351.958523 326.007286,354.468108 C325.464198,355.315108 324.569428,355.8767 323.567195,355.999604 C322.564167,355.924898 321.648326,355.404641 321.073842,354.583218 C319.81938,352.468439 319.602301,350.034623 319.693656,347.589063 C320.412039,327.902452 317.386981,308.451996 315.972549,288.897778 C315.447678,281.687405 315.068899,274.452549 315.01833,267.223926 C314.872958,247.935559 314.438641,228.691328 312.986487,209.426089 C311.792295,193.654209 312.030455,177.765443 311.86031,161.926223 C311.572172,135.750721 311.433615,109.573355 311.298719,83.3955212 C311.276727,78.9189014 311.387697,74.4291564 311.747556,69.9697193 C313.319323,50.7033738 312.25262,31.4144255 312.584332,12.1404829 C312.674352,9.12872463 312.942164,6.12483083 313.386384,3.14433084 L317.480803,7.15289238 C317.480803,7.15289238 318.331768,32.4119032 318.437953,46.1780263 C318.48872,52.3716179 318.309464,58.5658077 318.2519,63.3898474" id="Path"></path>
                <path d="M371.552897,17.3561342 C371.552897,17.3561342 372.346481,41.7670163 370.24806,53.8153226 C371.572854,74.4249022 368.887741,95.0824914 370.700516,115.728383 C371.268525,122.196635 370.688365,128.863847 370.718615,135.442647 C370.747151,141.072675 370.751061,146.712679 371.012413,152.325588 C372.232521,178.531664 374.411007,204.723441 374.563493,230.936672 C374.71607,257.260126 377.185137,283.40956 376.477015,309.767375 C376.177139,320.990045 377.088662,332.27235 377.353015,343.5311 C377.292052,345.38141 377.078046,347.215121 376.715407,348.994454 C376.666204,349.332266 376.301447,349.825697 376.090416,349.816042 C375.492793,349.783237 374.664362,349.825904 374.341026,349.309808 C372.816065,346.812466 371.931051,343.656035 371.829928,340.353893 C371.400863,331.454499 370.685211,322.545588 370.692864,313.644248 C370.720975,286.387562 370.019022,259.174959 368.957765,231.970062 C368.350357,216.504465 368.976813,200.996849 367.734609,185.529283 C366.27873,167.363239 365.336096,149.112378 364.300628,130.87921 C364.06431,126.691131 364.379728,122.4457 364.372515,118.228417 C364.324469,90.6314808 363.859276,63.0320418 364.770086,34.9947382 C364.820769,33.4338361 364.400727,30.9935734 364.44588,25.2824309 C364.452937,24.358913 366.122083,9.91394011 366.129499,8.96191088" id="Path"></path>
                <path d="M25.3097862,191.784618 C26.6751122,187.853659 28.1496643,187.723937 29.5179584,187.284652 C38.160472,184.540843 46.824356,182.236319 55.6449556,181.45111 C65.2817827,180.59023 74.8913034,178.920555 84.5251624,177.974177 C93.8728966,177.049418 103.237846,176.47255 112.599233,175.98118 C119.971994,175.593981 127.334069,175.328641 134.710391,174.450072 C143.757754,173.369058 152.871601,173.745448 161.950426,173.306163 C184.643925,172.214339 207.330894,170.903364 230.024393,169.921607 C239.385781,169.517701 248.782785,170.423787 258.119241,169.505909 C280.526615,167.311451 302.951798,167.351743 325.376387,167.343881 C342.124782,167.343881 358.872583,167.921732 375.617416,168.279449 C376.750431,168.213741 377.882991,168.429725 378.977305,168.920196 C379.703303,169.313292 380.714831,170.543682 380.781317,171.542145 C380.920817,173.673708 379.831525,174.603379 378.614604,174.81172 C377.769656,174.990941 376.919171,175.089378 376.06738,175.106542 C361.884017,174.81172 347.700061,175.56843 333.513137,173.564624 C325.62452,172.45511 317.627272,173.108632 309.682262,173.391661 C291.521051,174.027494 273.366964,175.003354 255.208722,175.696186 C229.960876,176.66615 204.702345,176.966868 179.472307,178.590354 C163.303286,179.624196 147.117049,180.34651 130.965836,181.767552 C117.354129,182.963546 103.729363,182.819083 90.1419949,184.083869 C72.2983712,185.747648 54.3989472,186.036573 36.6176536,189.47911 C33.0167547,190.171942 29.5238946,192.722151 25.3097862,191.783635" id="Path" transform="translate(203.051595, 179.666222) rotate(90.000000) translate(-203.051595, -179.666222) "></path>
                <path d="M-6.30477603,195.091852 C17.2296786,186.796546 40.9771916,180.6102 65.1808536,180.893229 C80.3385995,181.072087 95.5127781,179.397499 110.664291,178.022646 C124.1799,176.792256 137.668878,174.747175 151.174854,173.239652 C155.770909,172.731575 160.383964,172.621509 164.990219,172.603819 C182.329547,172.529131 199.599178,168.820271 216.978171,170.177435 C237.828794,171.725921 258.711985,171.367379 279.540846,169.1033 C292.803165,167.704862 306.052452,166.948152 319.319304,166.486265 C324.985752,166.28382 330.676564,167.665552 336.318646,165.221479 C338.19362,164.449139 340.167404,164.923185 341.850798,166.550143 C342.520325,167.219435 343.015323,168.310576 343.232844,169.596636 C343.43287,171.230932 342.510372,172.039727 341.714237,172.097708 C329.001563,172.969398 316.288322,173.964914 303.568282,174.518196 C294.622095,174.911292 285.692908,175.24051 276.776753,176.778497 C272.20393,177.564689 267.581243,177.754358 262.977821,177.766151 C239.405402,177.830029 215.826182,177.500811 192.252062,177.800547 C171.112248,178.065886 150.012666,180.105071 128.901184,182.124601 C98.602125,185.01877 68.2668006,187.178832 37.904844,186.185282 C31.0637424,185.960234 24.4555319,188.507496 17.7713909,190.182084 C12.9486778,191.394785 8.16562984,193.145044 3.33271714,194.211317 C0.148740531,194.915941 -3.09190055,194.82946 -6.30930919,195.095783" id="Path" transform="translate(168.475612, 179.977744) rotate(90.000000) translate(-168.475612, -179.977744) "></path>
                <path d="M112.490598,174.563396 C123.956613,173.644534 135.425704,173.18756 146.913256,173.864668 C148.971022,173.986528 151.036172,173.92265 153.090862,173.760498 C183.674285,171.392095 214.297706,172.30506 244.897128,171.079584 C253.701093,170.72678 262.490289,168.953918 271.286869,167.836543 C272.152462,167.614062 273.031001,167.54813 273.905844,167.639995 C274.43997,167.932319 274.88383,168.539906 275.146411,169.338169 C275.406298,169.925289 275.47584,170.674278 275.334574,171.356705 C275.193309,172.039133 274.857711,172.57408 274.430131,172.798396 C270.552149,175.033111 266.471291,176.23915 262.349371,176.368689 C249.411414,176.767681 236.473457,177.604975 223.549653,178.366599 C198.53832,179.840708 173.526988,178.736109 148.518732,179.897707 C106.746412,181.844842 64.9605539,182.590086 23.1611579,182.13344 C18.180429,182.070545 13.1923158,183.132886 8.19743364,183.560378 C1.73614708,184.12054 -4.72944699,184.467447 -11.1821185,185.0964 C-17.935086,185.760732 -24.6835408,186.546924 -31.427483,187.454975 C-43.7291573,189.136443 -56.0228318,190.973184 -68.3208139,192.71165 C-69.4881192,192.915657 -70.6640389,192.963979 -71.8363691,192.856113 C-72.6794132,192.751942 -73.6990657,192.359829 -73.4750745,190.436608 C-73.3435334,189.607628 -72.9729927,188.927945 -72.4769595,188.605764 C-69.901806,187.620771 -67.2921408,186.882075 -64.6618796,186.393617 C-34.7602762,182.315247 -4.88759467,176.920006 25.1407731,176.63108 C48.9656903,176.400137 72.7801465,174.30297 96.6198324,175.648341 C101.893473,175.949059 107.196035,174.954526 112.491214,174.556517" id="Path" transform="translate(100.949920, 180.255929) rotate(90.000000) translate(-100.949920, -180.255929) "></path>
                <path d="M53.7551545,188.001046 C54.5193222,187.386493 55.3359914,186.929917 56.1826879,186.643882 C66.2347182,185.407596 76.2788434,183.892211 86.3460252,183.213138 C97.3855379,182.468221 108.319649,180.497828 119.284063,178.609003 C128.975751,176.938345 138.691155,175.599854 148.425662,174.403859 C178.3334,170.724482 208.291863,171.399624 238.222658,171.377021 C269.428155,171.347539 300.648145,171.174577 331.845736,173.41031 C347.90303,174.566012 363.99919,174.491323 380.080199,174.854937 C385.430569,174.91862 390.768002,174.061244 395.986636,172.299814 C400.811399,170.734309 405.852896,168.533955 410.909543,170.814894 C411.72187,171.41858 412.307107,172.538811 412.501109,173.861387 C412.68688,175.351221 411.71916,176.332977 410.773838,176.613058 C390.220503,182.770905 369.482056,182.649046 348.642159,181.338071 C327.860892,180.032992 307.048005,179.709671 286.247634,178.963772 C271.754898,178.443902 257.262161,177.704882 242.764155,177.508334 C230.787884,177.341268 218.807661,177.739278 206.831391,178.039996 C190.76224,178.443902 174.673984,178.443902 158.631843,179.639897 C141.645038,180.904683 124.670091,182.784664 107.799228,186.27732 C104.058784,187.057616 100.279474,187.548003 96.5080686,187.796636 C83.9079517,188.611327 71.3005884,189.270746 58.7011302,189.968491 C57.1563363,190.049075 55.6108835,189.980284 54.0660896,189.980284 C53.9613466,189.315952 53.8605562,188.657516 53.7551545,187.993184" id="Path" transform="translate(233.139679, 179.920398) rotate(90.000000) translate(-233.139679, -179.920398) "></path>
                <path d="M-41.0130221,192.868318 C-38.3476971,191.042388 -37.2074978,189.760895 -35.9521122,189.48278 C-29.7553773,188.137409 -23.5469779,186.877537 -17.3159786,185.918383 C-11.0849793,184.959229 -4.79492882,184.670303 1.42732212,183.618772 C15.6188488,181.14948 29.9055799,179.804094 44.2139545,179.589539 C53.6067467,179.503058 63.0228677,178.174394 72.3843117,176.868333 C85.6037699,175.031593 98.8961309,175.539669 112.116318,174.332865 C137.548448,172.016547 163.014841,171.641141 188.476861,171.589055 C213.956377,171.531074 239.43079,171.90648 264.905932,170.884431 C271.184531,170.780485 277.447299,170.009927 283.63611,168.579906 C291.207791,166.650788 298.87862,165.662152 306.407288,169.151861 C307.018244,169.5363 307.497819,170.219666 307.748699,171.06329 C308.318799,172.917719 307.157458,173.686222 306.222844,173.963354 C303.845408,174.692761 301.437047,175.225093 299.011303,175.557358 C280.962766,177.902175 262.901106,179.866672 244.749046,179.768398 C223.456336,179.652435 202.168,179.531558 180.875289,179.583643 C164.475813,179.623935 148.055923,179.288821 131.681962,180.288267 C112.508535,181.460676 93.3475015,182.352021 74.1616811,182.396244 C71.0377976,182.408037 67.9226625,183.337708 64.798779,183.666926 C59.5884185,184.221191 54.3386904,185.337584 49.1538458,184.989694 C31.9786836,183.817285 15.0229586,187.053447 -2.00639808,188.900015 C-7.22113282,189.466073 -12.4358675,190.482226 -17.6513313,190.546104 C-23.6162355,190.609982 -29.4951144,190.985389 -35.3229614,192.806405 C-36.6038629,193.205398 -38.0094282,192.864387 -41.009377,192.864387" id="Path" transform="translate(133.443356, 179.915485) rotate(90.000000) translate(-133.443356, -179.915485) "></path>
                <path d="M-105.648343,191.953786 C-95.8478662,190.648707 -86.1090575,188.764795 -76.4125353,185.946298 C-70.3473635,184.177366 -64.2093651,182.717015 -57.9850318,182.913563 C-55.4582411,182.897176 -52.9391451,182.446352 -50.4674373,181.568193 C-38.5976161,177.861998 -26.603142,175.377228 -14.5515424,174.12787 C-8.11695139,173.405557 -1.72699608,171.632694 4.69761063,170.491733 C8.60206126,169.798902 12.5235439,169.058899 16.443852,168.932125 C27.959867,168.556719 39.4453418,167.788216 50.9478487,166.390761 C62.1326197,165.033597 73.4072495,165.709722 84.6407674,165.564277 C101.496624,165.345126 118.347194,164.969719 135.197178,165.072907 C153.724524,165.18887 172.265966,165.165284 190.772757,166.350468 C206.483355,167.355811 222.169873,169.279033 237.908074,168.759163 C238.464714,168.816728 239.017743,168.948173 239.561945,169.152259 C240.290212,169.319325 240.486961,169.920762 240.474094,170.989 C240.459945,172.057238 240.262608,172.727466 239.568993,172.964306 C235.155575,174.363709 230.656746,174.858722 226.171817,174.438416 C212.13917,173.416367 198.102411,171.769295 184.06624,171.660211 C165.821978,171.515748 147.60532,169.857866 129.33639,170.602783 C106.873466,171.526558 84.3659054,169.73011 61.9200128,171.076463 C37.5236568,172.537797 13.1002844,173.631587 -11.2302927,178.071605 C-25.1871767,180.618866 -39.0888533,183.657497 -52.9940538,186.788506 C-60.2367863,188.422802 -67.5652663,187.869519 -74.825618,189.722967 C-84.5297753,192.189643 -94.3196802,193.771854 -104.092553,195.470028 C-105.433386,195.70392 -106.781855,195.961398 -108.438662,196.097999" id="Path" transform="translate(66.017716, 180.576662) rotate(90.000000) translate(-66.017716, -180.576662) "></path>
                <path d="M86.3883637,188.292949 C86.3883637,188.292949 110.943373,185.088235 123.34999,183.018585 C133.151236,181.378392 143.033763,180.834937 152.886278,180.061521 C167.226759,178.929405 181.60663,178.674875 195.90647,176.844031 C210.224442,175.013187 224.601186,174.949309 238.87164,172.991692 C254.681433,170.819837 270.480596,169.184558 286.327277,168.667637 C309.653067,167.916824 333.000115,166.518385 356.307147,167.367472 C375.156226,168.048511 394.00593,167.436264 412.840629,168.499588 C421.800303,169.001768 430.745597,170.307829 439.694642,171.341672 C440.568174,171.504283 441.406502,171.978577 442.145578,172.728317 C442.575743,173.13812 443.07906,174.398975 442.958389,174.958154 C442.733456,176.251107 442.22922,177.380689 441.532219,178.15304 C440.691191,178.642283 439.779894,178.752229 438.901213,178.470465 C423.749173,175.69226 408.570872,173.831934 393.297534,173.907605 C374.153968,173.999982 355.014778,173.653075 335.871212,173.59018 C325.400961,173.549888 314.925707,173.439821 304.460457,173.821124 C293.104867,174.236823 281.764283,175.501609 270.411194,175.820016 C246.780288,176.490245 223.235039,179.476791 199.6479,181.400012 C195.168063,181.763626 190.680723,182.070241 186.197134,182.260892 C167.37369,183.040205 148.579632,184.54871 129.77432,186.229195 C114.530369,187.586359 84.2075302,192.236683 84.2075302,192.236683" id="Path" transform="translate(263.592055, 179.669635) rotate(90.000000) translate(-263.592055, -179.669635) "></path>
                <path d="M337.866966,4.28258459 C337.866966,4.28258459 340.352126,44.0852067 341.240984,64.1306396 C342.053658,82.5037227 342.824829,100.899328 342.476189,119.272253 C342.132,137.672679 343.632219,156.04212 343.330516,174.420046 C343.095014,188.439416 341.716391,202.449265 340.94914,216.464145 C339.746135,238.27082 340.677888,260.106303 343.738526,281.832918 C345.478362,294.230725 348.286704,306.542391 348.825191,319.046745 C349.172304,327.060678 350.786102,335.165273 354.822395,342.923508 C356.491919,346.121357 358.102049,349.457426 357.531072,352.9628 C357.376127,354.267599 355.719638,355.268027 353.746844,355.248554 C352.40764,355.118227 351.259838,354.545631 350.699842,353.72823 C347.425605,344.009171 344.415236,334.227731 343.435261,324.281975 C342.007205,309.67873 340.250232,295.122008 337.916571,280.555188 C334.209906,257.310879 333.266483,233.909112 335.095039,210.56661 C336.785999,188.774021 338.210628,166.978524 337.757973,145.147366 C337.278286,122.092487 336.376848,99.0356647 336.607055,75.9822273 C336.77685,59.1387573 335.840054,42.3577151 334.443456,25.5503669 C333.835194,18.2009647 334.657313,3.05036691 334.657313,3.05036691" id="Path"></path>
                <path d="M286.254658,1.38576687e-13 C286.496716,3.80905928 286.578577,7.14251523 286.96171,10.458495 C287.317004,13.5490237 288.191912,16.6172886 288.489319,19.7042643 C290.952722,45.0210233 293.242984,70.343043 295.805732,95.6573054 C296.57276,103.24237 298.264744,110.791732 299.119326,118.374177 C300.290875,128.776793 301.442481,139.189221 301.945269,149.605467 C302.770395,166.506975 303.392903,183.413434 303.490604,200.317937 C303.612438,219.770179 302.936409,239.21407 303.582946,258.671805 C304.09733,274.16016 303.363019,289.663146 303.177387,305.158319 C303.219907,305.722038 303.189994,306.286883 303.087912,306.847848 C298.75874,321.994327 302.608967,337.181628 302.410323,352.347177 C302.387962,354.297345 302.930634,356.319442 300.938806,358.05861 C300.379616,358.480989 299.545633,358.73959 298.647653,358.769049 C297.798964,358.696248 297.041307,358.411436 296.562173,357.985094 C296.061977,357.508327 295.827354,356.948574 295.892173,356.386638 C297.284754,347.646512 294.839371,338.966412 294.815924,330.249187 C294.811421,327.432286 294.524531,324.591799 294.987123,321.801007 C298.295225,301.854187 297.59989,281.844241 298.108382,261.841591 C298.892321,231.126111 298.041596,200.414738 298.560133,169.700015 C298.734047,159.571418 297.347504,149.430024 296.626158,139.296181 C296.285782,134.511217 295.905103,129.72642 295.397481,124.946778 C294.402345,115.675933 293.216209,106.416055 292.275202,97.1428291 C291.043998,85.0526588 289.905261,72.9599199 288.85899,60.8646123 C287.915637,49.6120785 287.79886,38.3269374 286.155462,27.1159978 C285.090509,19.8048433 284.344382,12.5147088 284.101474,5.19152931 C284.04918,3.6113276 283.197951,1.89073206 286.251779,1.38576687e-13" id="Path"></path>
                <path d="M-141.33203,186.459404 C-127.341433,187.077547 -114.659286,180.897097 -101.380215,179.106545 C-97.4647604,178.574883 -93.5633223,177.639315 -89.6429211,177.518438 C-75.0364379,177.068343 -60.5808346,174.98297 -46.1244067,172.643066 C-34.7465862,170.800429 -23.279722,171.713395 -11.8474858,171.447072 C-0.807702037,171.192543 10.2749547,171.689809 21.2611473,170.67857 C43.3687472,168.645281 65.4046173,171.279024 87.4833604,171.18075 C121.004233,171.042183 154.530053,171.706515 188.055873,172.191006 C192.095824,172.248988 195.843909,171.173871 199.681037,170.105633 C201.588723,169.581094 203.563879,169.504654 205.496093,169.880585 C206.353552,170.053547 207.483089,171.769411 207.575431,172.895631 C207.662826,173.905887 206.650365,175.830091 205.874529,176.040398 C200.902092,177.369062 196.099497,179.774808 190.875594,179.57826 C190.085742,179.549761 189.300013,179.526175 188.510986,179.509469 C159.736643,178.891325 130.968071,178.169012 102.196201,177.73071 C92.7509615,177.586247 83.2966522,178.418628 73.8464654,178.389145 C60.4659836,178.342957 47.0178945,176.765659 33.7206852,177.886965 C9.67390896,179.914357 -14.3819366,177.915465 -38.3800685,179.429867 C-60.7984972,180.839115 -83.1732285,183.323481 -105.543013,185.719401 C-112.187495,186.429922 -118.709954,188.625362 -125.330527,189.791874 C-129.238225,190.3645 -133.169681,190.676841 -137.106571,190.727442 C-138.711009,190.796234 -140.164566,190.011025 -141.33203,186.464318" id="Path" transform="translate(33.124348, 180.188727) rotate(90.000000) translate(-33.124348, -180.188727) "></path>
                <path d="M61.8150347,179.359727 C31.2926492,179.359727 0.7594538,178.966631 -29.7560526,179.487483 C-53.6932131,179.891389 -77.6470798,181.012695 -101.538052,182.63225 C-115.551678,183.585508 -129.461136,186.149475 -143.421695,187.957716 C-146.671761,188.449557 -149.945494,188.769719 -153.229268,188.91687 C-154.998169,188.957163 -158.196932,188.501172 -158.339426,187.778858 C-159.044039,184.301925 -155.665438,184.717624 -153.747163,184.296028 C-130.358844,179.168952 -106.565511,176.105453 -82.6412767,175.140825 C-52.1257703,173.974313 -21.6033848,172.992556 8.94848237,173.655906 C18.7914333,173.875057 28.6510905,172.933592 38.5117305,172.690855 C47.424043,172.471704 56.3717335,171.986231 65.2496507,172.5061 C84.019655,173.615613 102.777867,174.302548 121.585214,174.078484 C137.556424,173.887832 153.533531,174.170861 169.510637,174.286824 C170.901205,174.372985 172.284594,174.550589 173.65183,174.818487 C174.910698,174.991449 175.430559,175.742262 174.831098,176.851775 C174.443905,177.568192 173.693105,178.567639 173.062197,178.596138 C160.394901,179.133697 147.727605,179.832425 135.054412,179.936595 C110.643579,180.139039 86.2327466,179.994577 61.8170002,179.994577 L61.8170002,179.364641" id="Path" transform="translate(8.322599, 180.596740) rotate(90.000000) translate(-8.322599, -180.596740) "></path>
            </g>
        </g>
    </g>
</svg>