<?xml version="1.0" encoding="UTF-8"?>
<svg width="283px" height="436px" viewBox="0 0 283 436" version="1.1" xmlns="http://www.w3.org/2000/svg" xmlns:xlink="http://www.w3.org/1999/xlink">
    <title>orangeLeafs</title>
    <g id="Save-the-date" stroke="none" stroke-width="1" fill="none" fill-rule="evenodd">
        <g id="Save-the-Date-export" transform="translate(-624.000000, -122.000000)" fill="#F7934C">
            <path d="M762.237575,122 C769.583666,122 780.378234,144.765475 783.484673,155.762704 C786.591112,166.759933 787.076986,184.703945 783.484673,197.217709 C779.316659,211.736919 774.444678,223.983449 766.955422,228.634335 C764.277603,230.297281 762.25112,231.321569 760.637217,231.756591 C760.078567,235.937488 759.245824,241.279351 758.542479,247.018797 C758.380988,248.336595 758.223365,249.670884 758.070904,251.007013 L757.970043,251.897876 C757.920008,252.343284 757.87058,252.788533 757.821804,253.233083 L757.725139,254.121088 C756.38442,266.535585 755.581033,278.117519 756.367024,276.954029 C757.324109,275.537269 758.289001,274.107115 759.257858,272.669424 L760.227894,271.229437 L760.227894,271.229437 L761.199719,269.785728 C761.361792,269.544872 761.523903,269.303915 761.686036,269.062885 L762.658944,267.616033 C763.145383,266.892382 763.631692,266.168555 764.117391,265.445285 L765.087834,263.999706 C778.335548,244.25953 790.888329,225.300217 792.937362,222.076772 C793.297922,221.509556 793.653679,221.00689 794.000923,220.565496 C793.999284,216.870881 796.048661,210.680939 798.293648,204.467733 L798.764285,203.171824 C800.28591,199.000385 801.837652,194.896097 802.855924,191.609746 C807.787817,175.692645 813.018707,166.179036 843.795858,147.482654 C896.484929,115.475307 884.677449,135.770116 881.963383,143.227968 C879.249317,150.685819 864.100749,177.069737 848.918243,191.609746 C834.030313,205.867643 813.819133,223.308571 797.372283,223.979995 C797.326968,224.060391 797.279239,224.141816 797.230266,224.223848 C795.287615,227.47794 787.053487,240.482656 776.441431,256.993672 C775.321968,258.735415 789.213981,252.062406 801.538155,250.082219 C802.901247,248.569086 805.191717,246.756281 808.475057,244.5 C825.284947,232.948399 826.874702,222 856.872471,222 C886.870239,222 907,224.17758 907,229.093655 C907,234.00973 896.291779,242.411587 878.286151,253.432484 C860.280524,264.453381 853.364112,271.467636 827.122178,263.723257 C813.912015,259.824744 805.016636,257.907168 801.583902,255.49045 C796.04325,256.092824 788.376042,258.133409 781.845023,260.696061 C776.285783,262.877406 769.852298,267.221386 769.472305,267.809678 C760.92233,281.046453 751.503301,295.509045 742.849545,308.589777 C737.481496,316.703944 729.826066,327.151607 721.997826,339.03531 C721.608184,339.626809 726.249305,338.235525 731.541012,335.468904 C732.990861,334.71089 734.699464,333.821268 736.452947,332.916438 L737.038811,332.614424 L737.038811,332.614424 L737.626238,332.312242 C737.92005,332.161268 738.213788,332.010591 738.506462,331.860748 L739.090099,331.562336 C741.066158,330.553368 742.96263,329.599538 744.468886,328.869909 C744.860742,327.614825 745.46395,326.173108 746.136577,324.693374 L746.366784,324.191085 C746.676722,323.519996 746.997561,322.844562 747.316303,322.178397 L747.554763,321.680724 C748.703455,319.285763 749.781893,317.057335 750.170944,315.643977 C752.061126,308.777264 753.841107,304.903492 762.868955,296.795285 C781.866096,279.733327 814.932774,266.256977 819.081978,269.478694 C827.61895,276.107366 815.579611,288.60155 806.615789,304.903492 C797.651968,321.205435 771.695019,331.154291 745.743494,332.992015 C745.635021,332.999696 745.532264,333.001793 745.435047,332.99849 C742.886671,334.757497 738.671683,336.949652 734.225024,339.117756 L733.431051,339.503485 C732.900503,339.76034 732.36789,340.016475 731.83561,340.271127 L731.03774,340.651897 C730.904903,340.715141 730.772162,340.778269 730.639554,340.841268 L729.845807,341.217627 C722.985721,344.464393 716.688692,347.299295 716.224863,348.046117 C713.612902,352.251697 711.039999,356.59408 708.586002,361.039378 C692.896459,389.460231 678.935065,420.443618 671.477242,436.685368 C671.271185,437.134122 678.604818,434.683772 685.952864,431.780013 L686.954253,431.381465 C688.843265,430.624212 690.710538,429.844253 692.427475,429.083381 C700.846549,425.352417 711.461087,421.250545 720.091546,417.113279 C728.370803,413.144372 734.73624,408.547358 738.042752,406.042024 C738.434862,403.035561 741.660713,398.568128 750.385939,390.062709 C763.905935,376.88331 777.570323,353.650123 799.890513,348.18673 C822.210704,342.723337 850.31173,339.179952 851.920677,344.971545 C853.529625,350.763138 830.241303,370.74663 820.298749,378.501549 C815.25226,382.437672 803.241929,393.080355 788.480305,397.777246 C774.158683,402.334135 772.339085,400.420278 760.465091,403.410245 C749.595872,406.147203 743.559997,412.316706 740.340127,410.748505 C734.647441,414.212294 726.167328,419.658224 716.224863,424.356707 C712.753564,425.997129 709.097521,427.49616 705.426017,428.906925 C704.615479,429.218372 709.722274,430.735367 717.170297,431.509194 C718.402032,431.637167 719.682139,431.754461 720.977815,431.862503 L721.685894,431.920526 L721.685894,431.920526 L722.395878,431.976766 C727.693692,432.389571 733.0517,432.657959 736.263269,432.878054 C739.021522,425.439882 763.01079,415.773996 781.6705,414.133535 C791.358643,413.281806 802.854454,416.666114 813.568974,419.695566 C824.781654,422.865868 835,425.796876 835,429.963193 C835,438.110725 805.306468,453 782.767434,453 C774.231947,453 766.500853,449.597128 758.888407,447.192012 C748.592245,443.938988 739.716516,440.444096 736.916935,436.683764 C732.071013,436.6538 724.297059,436.373413 717.170297,435.397444 C717.020833,435.376975 716.87148,435.356626 716.722258,435.336397 L715.828651,435.216472 C704.682126,433.735635 694.492849,432.942064 693.582774,433.274886 C690.442407,434.423344 687.437847,435.547425 684.690951,436.685368 C674.392524,440.951645 667.542718,445.096663 667.407179,445.371296 C659.147507,462.107258 632.624177,533.781478 632.624177,546.246946 C632.624177,558.712413 624,561.684607 624,553.125873 C624,544.567139 629.199004,528.746494 641.841599,491.2037 C654.484194,453.660906 683.746482,396.084642 686.802723,388 C686.871134,387.819032 688.098767,381.600945 686.802723,371.073118 C686.707681,370.301083 681.208833,365.685801 675.397281,360.368422 L674.77365,359.79616 C671.203418,356.510126 667.58406,353.002664 665.086363,349.996137 C662.987285,350.048423 658.803188,349.459661 650.893904,347.907084 C628.398204,343.491222 627.979676,312.03126 627.979676,304.585558 C627.979676,301.823443 627.491153,298.251981 626.999463,294.645129 L626.871443,293.703917 C626.850201,293.547084 626.829032,293.390312 626.807978,293.233663 L626.683333,292.295768 C625.988359,286.995224 625.517036,281.985016 626.837246,279.765316 C629.244689,275.717628 634.638406,279.220834 639.918967,284.320447 C642.35615,286.674115 646.246834,292.680896 649.993168,298.969414 L650.615946,300.019531 C653.203004,304.401071 655.677639,308.828154 657.504733,312.171713 L657.930529,312.952785 C658.824962,314.597529 659.532724,315.924864 659.978574,316.776034 C662.218033,321.051379 664.752839,335.47791 665.519032,342.253708 C667.196145,343.7515 670.392938,346.978948 673.645996,350.244196 L674.243911,350.84409 L674.243911,350.84409 L674.841078,351.442508 C679.510697,356.118251 683.926088,360.443859 683.730987,359.385448 C682.209332,351.13057 681.566816,341.684027 681.315214,333.814974 C680.411918,305.563731 682.469926,278.400876 683.389012,261.587749 C678.944173,258.008545 672.76841,247.821139 671.308713,233.278008 C669.307042,213.335125 677.600722,202.396926 680.054368,190.607236 C680.692316,187.541916 680.860919,183.731114 680.924118,179.769695 L680.936997,178.853119 C680.940776,178.546883 680.944098,178.240026 680.947127,177.93282 L680.955503,177.010422 C681.044246,166.550833 680.986474,156 687.292994,156 C696.567289,156 709.395823,169.125653 711.484758,177.730628 C713.573693,186.335603 717.983584,225.801458 705.749453,239.724576 C695.315276,251.599248 691.518175,258.316066 688.695719,261.429175 C688.409053,265.348594 686.1082,283.855327 686.802723,305.946595 C686.897359,308.95675 686.990902,312.210293 687.09472,315.576325 C687.125151,316.562946 689.993058,313.897682 692.975599,311.092323 L693.722046,310.390098 C694.639113,309.527887 695.545567,308.680097 696.36227,307.948795 C696.599053,306.647672 696.905404,305.136639 697.136924,303.463904 C698.143045,296.194677 700.71423,283.600674 706.575863,275.096534 C713.153665,265.553365 721.961702,263.177232 728.25685,256.60146 C733.291198,251.342692 738.864723,250.09804 741.170931,251.581146 C743.47714,253.064252 740.591513,261.870012 737.178427,275.096534 C733.765341,288.323056 737.13287,286.685047 728.25685,297.142164 C723.209785,303.08827 713.74073,307.834857 701.866258,312.068885 C700.274544,312.636436 699.085067,312.933494 698.208992,312.989997 C695.668368,316.552422 687.956762,321.092176 686.802723,323.736873 C686.18674,325.148513 686.585291,329.898165 687.173514,334.716114 L687.289511,335.648595 C687.839813,339.995958 688.501438,344.226943 688.666572,345.932207 C690.465219,364.505993 693.23213,375.612798 693.840995,374.523204 C697.294917,368.342241 701.658705,360.767238 706.188817,353.056796 L707.128211,351.460013 C717.952924,333.084274 729.42892,314.433187 731.541012,312.459543 C732.845416,311.240643 739.345051,301.964138 747.669786,289.768294 C748.201328,288.989577 749.570334,271.031692 751.727949,254.407751 L751.891248,253.163746 C752.385577,249.44097 752.919767,245.809155 753.493262,242.479178 C754.310238,237.73544 755.265854,233.878779 756.222675,230.88546 C753.297685,228.175647 751.538786,220.639877 744.395297,209.634158 C732.06204,190.632745 749.24306,173.218026 752.667586,161.02846 C753.831925,156.884008 754.461597,151.046093 755.074307,145.145369 L755.182362,144.103745 C756.335315,132.993211 757.536077,122 762.237575,122 Z" id="orangeLeafs"></path>
        </g>
    </g>
</svg>