<svg width="644" height="644" viewBox="0 0 644 644" fill="none" xmlns="http://www.w3.org/2000/svg">
<path opacity="0.099865" d="M89.0122 305.857L219.537 112.345L452.386 128.627L554.71 338.421L424.184 531.933L191.336 515.651L89.0122 305.857Z" stroke="#FBB13C" stroke-width="12"/>
<path d="M154.246 492.691C152.888 492.185 151.815 491.112 151.309 489.754L151.777 489.579C151.728 489.446 151.684 489.31 151.647 489.171L151.384 488.19L150.901 488.32L148.536 479.492L149.019 479.363L148.493 477.401L148.01 477.53L145.645 468.703L146.128 468.573L145.602 466.611L145.119 466.741L142.754 457.913L143.237 457.784L142.711 455.822L142.228 455.951L139.863 447.124L140.346 446.994L139.82 445.033L139.337 445.162L136.972 436.334L137.455 436.205L136.929 434.243L136.446 434.372L134.081 425.545L134.563 425.415L134.038 423.454L133.555 423.583L131.189 414.755L131.672 414.626L131.147 412.664L130.664 412.793L128.298 403.966L128.781 403.836L128.256 401.875L127.773 402.004L125.407 393.176L125.89 393.047L125.365 391.085L124.882 391.214L122.516 382.387L122.999 382.257L122.474 380.296L121.991 380.425L119.625 371.597L120.108 371.468L119.583 369.506L119.1 369.635L116.734 360.808L117.217 360.678L116.692 358.717L116.209 358.846L113.843 350.018L114.326 349.889L113.801 347.927L113.318 348.057L110.952 339.229L111.435 339.099L110.91 337.138L110.427 337.267L108.061 328.439L108.544 328.31L108.019 326.348L107.536 326.478L105.17 317.65L105.653 317.52L105.127 315.559L104.645 315.688L102.279 306.86L102.762 306.731L102.236 304.769L101.753 304.899L99.3881 296.071L99.8711 295.941L99.3454 293.98L98.8624 294.109L96.4971 285.281L96.98 285.152L96.4544 283.19L95.9714 283.32L93.606 274.492L94.089 274.362L93.5633 272.401L93.0804 272.53L90.715 263.702L91.198 263.573L90.9351 262.592C90.8979 262.453 90.8676 262.314 90.844 262.174L90.351 262.256C90.1104 260.827 90.5031 259.362 91.4261 258.244L91.8116 258.562C91.9021 258.453 91.9982 258.347 92.0998 258.245L92.8178 257.527L92.4642 257.174L98.9266 250.712L99.2802 251.065L100.716 249.629L100.363 249.275L106.825 242.813L107.179 243.167L108.615 241.731L108.261 241.377L114.724 234.915L115.077 235.268L116.513 233.832L116.16 233.479L122.622 227.016L122.976 227.37L124.412 225.934L124.058 225.58L130.52 219.118L130.874 219.471L132.31 218.035L131.957 217.682L138.419 211.219L138.772 211.573L140.209 210.137L139.855 209.783L146.317 203.321L146.671 203.674L148.107 202.238L147.753 201.885L154.216 195.422L154.569 195.776L156.005 194.34L155.652 193.986L162.114 187.524L162.468 187.877L163.904 186.441L163.55 186.088L170.013 179.625L170.366 179.979L171.802 178.543L171.449 178.189L177.911 171.727L178.265 172.08L179.701 170.644L179.347 170.291L185.81 163.828L186.163 164.182L187.599 162.746L187.246 162.392L193.708 155.93L194.062 156.284L195.498 154.848L195.144 154.494L201.607 148.032L201.96 148.385L203.396 146.949L203.043 146.596L209.505 140.133L209.859 140.487L211.295 139.051L210.941 138.697L217.403 132.235L217.757 132.588L219.193 131.152L218.84 130.799L225.302 124.336L225.655 124.69L227.092 123.254L226.738 122.9L233.2 116.438L233.554 116.791L234.99 115.355L234.636 115.002L241.099 108.539L241.452 108.893L242.888 107.457L242.535 107.103L248.997 100.641L249.351 100.994L250.787 99.5583L250.433 99.2048L256.896 92.7424L257.249 93.096L257.967 92.3779C258.069 92.2763 258.175 92.1802 258.284 92.0898L257.966 91.7043C259.083 90.7812 260.549 90.3885 261.978 90.6291L261.895 91.1222C262.035 91.1457 262.175 91.176 262.314 91.2133L263.295 91.4761L263.424 90.9931L272.252 93.3585L272.122 93.8414L274.084 94.3671L274.214 93.8841L283.041 96.2495L282.912 96.7325L284.874 97.2581L285.003 96.7752L293.831 99.1406L293.701 99.6235L295.663 100.149L295.793 99.6662L304.62 102.032L304.491 102.515L306.453 103.04L306.582 102.557L315.41 104.923L315.28 105.406L317.242 105.931L317.372 105.448L326.199 107.814L326.07 108.297L328.032 108.822L328.161 108.339L336.989 110.705L336.859 111.188L338.821 111.713L338.951 111.23L347.778 113.596L347.649 114.079L349.611 114.604L349.74 114.121L358.568 116.487L358.438 116.97L360.4 117.495L360.53 117.012L369.357 119.378L369.228 119.861L371.19 120.386L371.319 119.903L380.147 122.269L380.017 122.752L381.979 123.277L382.109 122.794L390.936 125.16L390.807 125.643L392.769 126.168L392.898 125.686L401.726 128.051L401.596 128.534L403.558 129.06L403.688 128.577L412.515 130.942L412.386 131.425L414.348 131.951L414.477 131.468L423.305 133.833L423.175 134.316L425.137 134.842L425.266 134.359L434.094 136.724L433.965 137.207L435.927 137.733L436.056 137.25L444.884 139.615L444.754 140.098L446.716 140.624L446.845 140.141L455.673 142.506L455.544 142.989L457.506 143.515L457.635 143.032L466.463 145.397L466.333 145.88L468.295 146.406L468.424 145.923L477.252 148.288L477.123 148.771L479.084 149.297L479.214 148.814L488.042 151.179L487.912 151.662L488.893 151.925C489.032 151.962 489.168 152.006 489.301 152.055L489.476 151.587C490.834 152.093 491.907 153.166 492.413 154.524L491.945 154.699C491.994 154.832 492.038 154.968 492.075 155.107L492.338 156.088L492.821 155.958L495.186 164.786L494.703 164.915L495.229 166.877L495.712 166.748L498.077 175.576L497.594 175.705L498.12 177.667L498.603 177.537L500.968 186.365L500.485 186.494L501.011 188.456L501.494 188.327L503.859 197.155L503.376 197.284L503.902 199.246L504.385 199.116L506.75 207.944L506.267 208.073L506.793 210.035L507.276 209.906L509.641 218.734L509.158 218.863L509.684 220.825L510.167 220.695L512.532 229.523L512.049 229.652L512.575 231.614L513.058 231.485L515.423 240.313L514.941 240.442L515.466 242.404L515.949 242.274L518.315 251.102L517.832 251.231L518.357 253.193L518.84 253.064L521.206 261.892L520.723 262.021L521.248 263.983L521.731 263.853L524.097 272.681L523.614 272.81L524.139 274.772L524.622 274.643L526.988 283.47L526.505 283.6L527.03 285.562L527.513 285.432L529.879 294.26L529.396 294.389L529.921 296.351L530.404 296.222L532.77 305.049L532.287 305.179L532.812 307.141L533.295 307.011L535.661 315.839L535.178 315.968L535.703 317.93L536.186 317.801L538.552 326.628L538.069 326.758L538.594 328.72L539.077 328.59L541.443 337.418L540.96 337.547L541.485 339.509L541.968 339.38L544.334 348.207L543.851 348.337L544.377 350.299L544.859 350.169L547.225 358.997L546.742 359.126L547.268 361.088L547.751 360.959L550.116 369.786L549.633 369.916L550.159 371.877L550.642 371.748L553.007 380.576L552.524 380.705L552.787 381.686C552.824 381.825 552.854 381.965 552.878 382.105L553.371 382.022C553.612 383.451 553.219 384.917 552.296 386.034L551.91 385.716C551.82 385.825 551.724 385.931 551.622 386.033L550.904 386.751L551.258 387.104L544.795 393.567L544.442 393.213L543.006 394.649L543.359 395.003L536.897 401.465L536.543 401.112L535.107 402.548L535.461 402.901L528.998 409.364L528.645 409.01L527.209 410.446L527.562 410.8L521.1 417.262L520.746 416.909L519.31 418.345L519.664 418.698L513.201 425.161L512.848 424.807L511.412 426.243L511.765 426.597L505.303 433.059L504.949 432.705L503.513 434.141L503.867 434.495L497.405 440.957L497.051 440.604L495.615 442.04L495.969 442.393L489.506 448.856L489.153 448.502L487.716 449.938L488.07 450.292L481.608 456.754L481.254 456.401L479.818 457.837L480.172 458.19L473.709 464.653L473.356 464.299L471.92 465.735L472.273 466.089L465.811 472.551L465.457 472.198L464.021 473.634L464.375 473.987L457.912 480.45L457.559 480.096L456.123 481.532L456.476 481.886L450.014 488.348L449.66 487.995L448.224 489.431L448.578 489.784L442.115 496.247L441.762 495.893L440.326 497.329L440.679 497.683L434.217 504.145L433.863 503.791L432.427 505.228L432.781 505.581L426.318 512.044L425.965 511.69L424.529 513.126L424.882 513.48L418.42 519.942L418.066 519.588L416.63 521.024L416.984 521.378L410.522 527.84L410.168 527.487L408.732 528.923L409.086 529.277L402.623 535.739L402.27 535.385L400.833 536.821L401.187 537.175L394.725 543.637L394.371 543.284L392.935 544.72L393.289 545.073L386.826 551.536L386.473 551.182L385.755 551.9C385.653 552.002 385.547 552.098 385.438 552.188L385.756 552.574C384.639 553.497 383.173 553.89 381.744 553.649L381.827 553.156C381.687 553.132 381.547 553.102 381.408 553.065L380.427 552.802L380.298 553.285L371.47 550.92L371.599 550.437L369.638 549.911L369.508 550.394L360.681 548.029L360.81 547.546L358.848 547.02L358.719 547.503L349.891 545.138L350.02 544.655L348.059 544.129L347.929 544.612L339.102 542.247L339.231 541.764L337.269 541.238L337.14 541.721L328.312 539.356L328.441 538.873L326.48 538.347L326.35 538.83L317.523 536.465L317.652 535.982L315.69 535.456L315.561 535.939L306.733 533.573L306.862 533.091L304.901 532.565L304.771 533.048L295.944 530.682L296.073 530.199L294.111 529.674L293.982 530.157L285.154 527.791L285.284 527.308L283.322 526.783L283.192 527.266L274.365 524.9L274.494 524.417L272.532 523.892L272.403 524.375L263.575 522.009L263.705 521.526L261.743 521.001L261.613 521.484L252.786 519.118L252.915 518.635L250.953 518.11L250.824 518.593L241.996 516.227L242.126 515.744L240.164 515.219L240.034 515.702L231.207 513.336L231.336 512.853L229.374 512.328L229.245 512.811L220.417 510.445L220.547 509.962L218.585 509.437L218.455 509.92L209.628 507.554L209.757 507.071L207.795 506.546L207.666 507.029L198.838 504.663L198.968 504.18L197.006 503.655L196.876 504.137L188.049 501.772L188.178 501.289L186.216 500.764L186.087 501.246L177.259 498.881L177.389 498.398L175.427 497.872L175.298 498.355L166.47 495.99L166.599 495.507L164.637 494.981L164.508 495.464L155.68 493.099L155.81 492.616L154.829 492.353C154.69 492.316 154.554 492.272 154.421 492.223L154.246 492.691Z" fill="white" fill-opacity="0.203985" stroke="#FBB13C" stroke-dasharray="2 9"/>
<path d="M415.268 102.725L558.522 292.829C558.63 292.972 558.653 293.161 558.583 293.325L465.575 512.439C465.505 512.603 465.353 512.718 465.176 512.739L228.914 541.749C228.736 541.771 228.561 541.696 228.454 541.553L85.1998 351.449C85.0923 351.307 85.0691 351.117 85.1389 350.953L178.147 131.84C178.217 131.675 178.369 131.561 178.546 131.539L414.808 102.529C414.985 102.508 415.161 102.582 415.268 102.725Z" stroke="#FBB13C" stroke-width="3"/>
</svg>
