<?xml version="1.0" encoding="UTF-8"?>
<svg width="479px" height="464px" viewBox="0 0 479 464" version="1.1" xmlns="http://www.w3.org/2000/svg" xmlns:xlink="http://www.w3.org/1999/xlink">
    <title>polygonBg</title>
    <g id="Save-the-date" stroke="none" stroke-width="1" fill="none" fill-rule="evenodd">
        <g id="Save-the-Date-export" transform="translate(-1971.000000, -771.000000)" stroke="#FBB13C">
            <g id="Polygon" transform="translate(1889.479257, 681.757418)">
                <path d="M321.381663,87.9643466 L523.526988,204.673005 L523.526988,438.09032 L321.381663,554.798978 L119.236337,438.09032 L119.236337,204.673005 L321.381663,87.9643466 Z" stroke-width="12" opacity="0.099865" transform="translate(321.381663, 321.381663) rotate(-26.000000) translate(-321.381663, -321.381663) "></path>
                <path d="M319.131663,82.9125317 C320.523967,82.1086842 322.239358,82.1086842 323.631663,82.9125317 L323.631663,82.9125317 L526.776988,200.19854 C527.47314,200.600464 528.03564,201.172819 528.424102,201.845654 C528.812564,202.51849 529.026988,203.291807 529.026988,204.095654 L529.026988,204.095654 L529.026988,438.667671 C529.026988,439.471518 528.812564,440.244835 528.424102,440.917671 C528.03564,441.590506 527.47314,442.162861 526.776988,442.564785 L526.776988,442.564785 L323.631663,559.850793 C322.239358,560.654641 320.523967,560.654641 319.131663,559.850793 L319.131663,559.850793 L115.986337,442.564785 C114.594032,441.760937 113.736337,440.275366 113.736337,438.667671 L113.736337,438.667671 L113.736337,204.095654 C113.736337,202.487959 114.594032,201.002388 115.986337,200.19854 L115.986337,200.19854 Z" fill-opacity="0.203985" fill="#FFFFFF" transform="translate(321.381663, 321.381663) rotate(-15.000000) translate(-321.381663, -321.381663) "></path>
                <path d="M321.381663,82.8455444 L527.776988,201.930591 C527.854338,201.975249 527.916838,202.038844 527.96,202.113603 C528.003163,202.188363 528.026988,202.274287 528.026988,202.363603 L528.026988,202.363603 L528.026988,440.399722 C528.026988,440.578354 527.931688,440.743418 527.776988,440.832734 L527.776988,440.832734 L321.631663,559.850793 C321.554312,559.895451 321.467987,559.917781 321.381663,559.917781 C321.295338,559.917781 321.209013,559.895451 321.131663,559.850793 L321.131663,559.850793 L114.986337,440.832734 C114.831637,440.743418 114.736337,440.578354 114.736337,440.399722 L114.736337,440.399722 L114.736337,202.363603 C114.736337,202.184971 114.831637,202.019907 114.986337,201.930591 L114.986337,201.930591 L321.131663,82.9125317 C321.209013,82.8678735 321.295338,82.8455444 321.381663,82.8455444 L321.381663,82.8455444 Z" stroke-width="3" transform="translate(321.381663, 321.381663) rotate(23.000000) translate(-321.381663, -321.381663) "></path>
            </g>
        </g>
    </g>
</svg>