<svg width="644" height="644" viewBox="0 0 644 644" fill="none" xmlns="http://www.w3.org/2000/svg">
<path opacity="0.099865" d="M89.0122 305.857L219.537 112.345L452.386 128.627L554.71 338.421L424.184 531.933L191.336 515.651L89.0122 305.857Z" stroke="#FBB13C" stroke-width="12"/>
<path d="M257.023 89.3229L256.676 88.9632C257.916 87.7657 259.686 87.2914 261.359 87.7085L261.238 88.1936C261.263 88.2 261.288 88.2065 261.314 88.2133L261.786 88.3398L261.915 87.8568L289.293 95.1928L289.164 95.6758L290.108 95.9288L290.238 95.4458L317.616 102.782L317.486 103.265L318.431 103.518L318.56 103.035L345.938 110.371L345.809 110.854L346.753 111.107L346.882 110.624L374.261 117.96L374.131 118.443L375.075 118.696L375.205 118.213L402.583 125.549L402.454 126.032L403.398 126.285L403.527 125.802L430.905 133.138L430.776 133.621L431.72 133.874L431.85 133.391L459.228 140.727L459.098 141.21L460.042 141.463L460.172 140.98L487.55 148.316L487.421 148.799L487.893 148.925C487.918 148.932 487.943 148.939 487.969 148.946L488.106 148.465C489.764 148.94 491.059 150.236 491.534 151.893L491.054 152.031C491.058 152.045 491.062 152.058 491.065 152.072L491.075 152.107L491.201 152.579L491.684 152.45L499.02 179.828L498.537 179.957L498.79 180.901L499.273 180.772L506.609 208.15L506.126 208.28L506.379 209.224L506.862 209.094L514.198 236.473L513.715 236.602L513.968 237.546L514.451 237.417L521.787 264.795L521.304 264.925L521.557 265.869L522.04 265.739L529.376 293.118L528.893 293.247L529.146 294.191L529.629 294.062L536.965 321.44L536.482 321.569L536.735 322.513L537.218 322.384L544.554 349.762L544.071 349.892L544.324 350.836L544.807 350.706L552.143 378.085L551.66 378.214L551.787 378.686C551.793 378.712 551.8 378.737 551.806 378.762L552.291 378.641C552.708 380.314 552.234 382.084 551.037 383.324L550.677 382.977C550.661 382.993 550.645 383.01 550.629 383.026C550.626 383.028 550.624 383.031 550.622 383.033L550.276 383.378L550.63 383.732L530.588 403.774L530.234 403.421L529.543 404.112L529.896 404.465L509.854 424.508L509.501 424.154L508.809 424.845L509.163 425.199L489.121 445.241L488.767 444.888L488.076 445.579L488.43 445.932L468.387 465.975L468.034 465.621L467.343 466.312L467.696 466.666L447.654 486.708L447.3 486.354L446.609 487.046L446.963 487.399L426.92 507.441L426.567 507.088L425.876 507.779L426.229 508.133L406.187 528.175L405.833 527.821L405.142 528.512L405.496 528.866L385.454 548.908L385.1 548.555L384.754 548.9L384.737 548.917C384.724 548.93 384.711 548.943 384.698 548.955L385.046 549.315C383.806 550.513 382.036 550.987 380.363 550.57L380.484 550.085C380.458 550.078 380.433 550.072 380.408 550.065L379.936 549.938L379.806 550.421L352.428 543.085L352.557 542.602L351.613 542.35L351.484 542.832L324.106 535.496L324.235 535.014L323.291 534.761L323.161 535.243L295.783 527.908L295.913 527.425L294.968 527.172L294.839 527.655L267.461 520.319L267.59 519.836L266.646 519.583L266.517 520.066L239.138 512.73L239.268 512.247L238.324 511.994L238.194 512.477L210.816 505.141L210.945 504.658L210.001 504.405L209.872 504.888L182.494 497.552L182.623 497.069L181.679 496.816L181.55 497.299L154.171 489.963L154.301 489.48L153.829 489.353C153.803 489.346 153.778 489.339 153.753 489.332L153.615 489.813C151.958 489.338 150.662 488.042 150.187 486.385L150.668 486.247C150.664 486.235 150.661 486.224 150.658 486.212C150.654 486.198 150.65 486.185 150.647 486.171L150.52 485.699L150.037 485.829L142.701 458.45L143.184 458.321L142.931 457.377L142.448 457.506L135.112 430.128L135.595 429.999L135.342 429.054L134.859 429.184L127.523 401.806L128.006 401.676L127.753 400.732L127.27 400.861L119.934 373.483L120.417 373.354L120.164 372.41L119.681 372.539L112.345 345.161L112.828 345.031L112.575 344.087L112.092 344.217L104.756 316.838L105.239 316.709L104.986 315.765L104.503 315.894L97.1674 288.516L97.6503 288.387L97.3974 287.442L96.9144 287.572L89.5784 260.194L90.0614 260.064L89.9349 259.592C89.9281 259.567 89.9215 259.541 89.9152 259.516L89.43 259.637C89.0129 257.964 89.4873 256.194 90.6848 254.954L91.0444 255.302C91.0626 255.283 91.081 255.264 91.0996 255.245L91.4451 254.9L91.0916 254.546L111.134 234.504L111.487 234.858L112.179 234.166L111.825 233.813L131.867 213.771L132.221 214.124L132.912 213.433L132.558 213.079L152.601 193.037L152.954 193.391L153.645 192.7L153.292 192.346L173.334 172.304L173.688 172.657L174.379 171.966L174.025 171.613L194.068 151.57L194.421 151.924L195.112 151.233L194.759 150.879L214.801 130.837L215.155 131.19L215.846 130.499L215.492 130.146L235.534 110.103L235.888 110.457L236.579 109.766L236.226 109.412L256.268 89.37L256.621 89.7236L256.967 89.378C256.974 89.3708 256.981 89.3636 256.989 89.3565C257 89.3452 257.012 89.334 257.023 89.3229Z" stroke="#FBB13C" stroke-dasharray="1 29"/>
<path d="M248.96 95.7308L249.332 96.0654L236.906 109.866L236.534 109.531L235.88 110.258L236.252 110.592L223.826 124.393L223.454 124.058L222.8 124.784L223.172 125.119L210.746 138.919L210.374 138.585L209.72 139.311L210.092 139.646L197.666 153.446L197.294 153.112L196.64 153.838L197.012 154.172L184.586 167.973L184.214 167.638L183.56 168.365L183.932 168.699L171.506 182.5L171.134 182.165L170.48 182.891L170.852 183.226L158.426 197.026L158.054 196.692L157.4 197.418L157.772 197.753L145.346 211.553L144.974 211.218L144.321 211.945L144.692 212.279L132.266 226.08L131.895 225.745L131.241 226.472L131.612 226.806L119.186 240.607L118.815 240.272L118.161 240.998L118.532 241.333L106.106 255.133L105.735 254.799L105.081 255.525L105.452 255.86L93.0263 269.66L92.6547 269.325L92.3277 269.689C92.2955 269.724 92.2639 269.76 92.2328 269.797L92.6129 270.122C91.5135 271.409 91.14 273.166 91.6209 274.789L91.1415 274.931C91.1551 274.977 91.1693 275.023 91.1842 275.068L91.3352 275.533L91.8108 275.379L97.5493 293.04L97.0738 293.195L97.3758 294.124L97.8513 293.97L103.59 311.631L103.114 311.786L103.416 312.715L103.892 312.561L109.63 330.222L109.155 330.377L109.457 331.306L109.932 331.152L115.671 348.813L115.195 348.967L115.497 349.897L115.973 349.742L121.712 367.404L121.236 367.558L121.538 368.488L122.014 368.333L127.752 385.995L127.277 386.149L127.579 387.079L128.054 386.924L133.793 404.586L133.317 404.74L133.619 405.67L134.095 405.515L139.833 423.177L139.358 423.331L139.66 424.261L140.135 424.106L145.874 441.768L145.398 441.922L145.7 442.852L146.176 442.697L151.914 460.359L151.439 460.513L151.741 461.443L152.216 461.288L157.955 478.949L157.479 479.104L157.781 480.034L158.257 479.879L163.995 497.54L163.52 497.695L163.671 498.16C163.686 498.205 163.701 498.251 163.717 498.296L164.189 498.129C164.753 499.725 166.088 500.927 167.734 501.322L167.618 501.808C167.664 501.819 167.711 501.83 167.758 501.84L168.236 501.942L168.34 501.452L186.505 505.313L186.401 505.803L187.357 506.006L187.461 505.517L205.625 509.378L205.521 509.867L206.477 510.07L206.581 509.581L224.746 513.442L224.642 513.931L225.598 514.134L225.702 513.645L243.866 517.506L243.762 517.995L244.718 518.198L244.822 517.709L262.987 521.57L262.883 522.059L263.839 522.262L263.943 521.773L282.107 525.634L282.003 526.123L282.959 526.327L283.063 525.838L301.228 529.699L301.124 530.188L302.08 530.391L302.184 529.902L320.348 533.763L320.244 534.252L321.2 534.455L321.304 533.966L339.469 537.827L339.365 538.316L340.321 538.519L340.425 538.03L358.589 541.891L358.485 542.38L359.441 542.583L359.545 542.094L377.71 545.955L377.606 546.444L378.562 546.648L378.666 546.159L396.83 550.019L396.726 550.509L397.204 550.61C397.251 550.62 397.298 550.63 397.346 550.638L397.437 550.147C399.101 550.455 400.81 549.9 401.975 548.672L402.337 549.016C402.37 548.982 402.403 548.946 402.435 548.911L402.762 548.547L402.391 548.213L414.816 534.412L415.188 534.747L415.842 534.021L415.47 533.686L427.896 519.886L428.268 520.22L428.922 519.494L428.55 519.159L440.976 505.359L441.348 505.694L442.002 504.967L441.63 504.633L454.056 490.832L454.428 491.167L455.082 490.44L454.71 490.106L467.136 476.305L467.508 476.64L468.162 475.914L467.79 475.579L480.216 461.779L480.588 462.113L481.242 461.387L480.87 461.052L493.296 447.252L493.668 447.587L494.322 446.86L493.95 446.526L506.376 432.725L506.748 433.06L507.402 432.333L507.03 431.999L519.456 418.198L519.828 418.533L520.482 417.807L520.11 417.472L532.536 403.672L532.908 404.006L533.562 403.28L533.19 402.945L545.616 389.145L545.987 389.48L546.641 388.753L546.27 388.419L558.696 374.618L559.067 374.953L559.394 374.59C559.427 374.554 559.458 374.518 559.489 374.481L559.109 374.157C560.209 372.869 560.582 371.112 560.101 369.489L560.581 369.347C560.567 369.301 560.553 369.256 560.538 369.21L560.387 368.745L559.911 368.9L554.173 351.238L554.648 351.084L554.346 350.154L553.871 350.309L548.132 332.647L548.608 332.493L548.306 331.563L547.83 331.718L542.092 314.056L542.567 313.902L542.265 312.972L541.79 313.127L536.051 295.465L536.527 295.311L536.225 294.381L535.749 294.536L530.011 276.874L530.486 276.72L530.184 275.79L529.709 275.945L523.97 258.283L524.446 258.129L524.144 257.199L523.668 257.354L517.929 239.693L518.405 239.538L518.103 238.608L517.627 238.763L511.889 221.102L512.364 220.947L512.062 220.018L511.587 220.172L505.848 202.511L506.324 202.356L506.022 201.427L505.546 201.581L499.808 183.92L500.283 183.765L499.981 182.836L499.506 182.99L493.767 165.329L494.243 165.174L493.941 164.245L493.465 164.399L487.727 146.738L488.202 146.583L488.051 146.119C488.036 146.073 488.021 146.027 488.005 145.982L487.534 146.149C486.969 144.553 485.634 143.351 483.988 142.956L484.104 142.47C484.058 142.459 484.011 142.448 483.964 142.438L483.486 142.337L483.382 142.826L465.217 138.965L465.321 138.476L464.365 138.273L464.261 138.762L446.097 134.901L446.201 134.412L445.245 134.208L445.141 134.697L426.976 130.836L427.08 130.347L426.124 130.144L426.02 130.633L407.856 126.772L407.96 126.283L407.004 126.08L406.9 126.569L388.735 122.708L388.839 122.219L387.883 122.016L387.779 122.505L369.615 118.644L369.719 118.155L368.763 117.952L368.659 118.441L350.494 114.58L350.598 114.091L349.642 113.887L349.538 114.377L331.374 110.516L331.478 110.026L330.522 109.823L330.418 110.312L312.253 106.451L312.357 105.962L311.401 105.759L311.297 106.248L293.133 102.387L293.237 101.898L292.281 101.695L292.177 102.184L274.012 98.323L274.116 97.8339L273.16 97.6307L273.056 98.1197L254.892 94.2588L254.996 93.7697L254.518 93.6681C254.471 93.6581 254.424 93.6487 254.377 93.64L254.285 94.1316C252.621 93.823 250.913 94.3781 249.747 95.6061L249.385 95.2619C249.352 95.2967 249.319 95.3319 249.287 95.3677L248.96 95.7308Z" stroke="#FBB13C" stroke-miterlimit="1.5404" stroke-dasharray="1 19"/>
<path d="M250.906 91.1879L251.265 91.5353L240.311 102.879L239.951 102.532L239.266 103.241L239.626 103.588L228.672 114.932L228.312 114.584L227.627 115.293L227.987 115.641L217.033 126.984L216.673 126.637L215.988 127.346L216.348 127.693L205.393 139.037L205.034 138.69L204.349 139.398L204.709 139.746L193.754 151.089L193.395 150.742L192.71 151.451L193.07 151.798L182.115 163.142L181.756 162.795L181.071 163.504L181.431 163.851L170.476 175.195L170.116 174.847L169.432 175.556L169.791 175.904L158.837 187.247L158.477 186.9L157.793 187.609L158.152 187.956L147.198 199.3L146.838 198.953L146.154 199.662L146.513 200.009L135.559 211.353L135.199 211.005L134.515 211.714L134.874 212.062L123.92 223.405L123.56 223.058L122.875 223.767L123.235 224.114L112.281 235.458L111.921 235.111L111.236 235.82L111.596 236.167L100.642 247.511L100.282 247.163L99.5972 247.872L99.9569 248.22L89.0024 259.563L88.6428 259.216L88.3004 259.57C88.2611 259.611 88.2225 259.652 88.1847 259.694L88.5548 260.03C87.4279 261.271 86.9979 262.996 87.4103 264.621L86.9257 264.744C86.9395 264.798 86.9543 264.853 86.9699 264.907L87.1057 265.381L87.5863 265.243L91.933 280.402L91.4524 280.539L91.724 281.487L92.2047 281.349L96.5513 296.508L96.0707 296.645L96.3424 297.593L96.823 297.455L101.17 312.614L100.689 312.752L100.961 313.699L101.441 313.561L105.788 328.72L105.307 328.858L105.579 329.805L106.06 329.667L110.406 344.826L109.926 344.964L110.197 345.911L110.678 345.773L115.025 360.932L114.544 361.07L114.816 362.017L115.296 361.879L119.643 377.038L119.162 377.176L119.434 378.123L119.915 377.985L124.261 393.144L123.781 393.282L124.052 394.229L124.533 394.092L128.88 409.25L128.399 409.388L128.671 410.335L129.151 410.198L133.498 425.356L133.017 425.494L133.289 426.442L133.77 426.304L138.116 441.462L137.636 441.6L137.907 442.548L138.388 442.41L142.735 457.568L142.254 457.706L142.526 458.654L143.006 458.516L147.353 473.675L146.872 473.812L147.144 474.76L147.625 474.622L151.971 489.781L151.491 489.918L151.627 490.392C151.634 490.419 151.642 490.446 151.65 490.472C151.659 490.5 151.667 490.527 151.676 490.554L152.152 490.402C152.663 491.998 153.942 493.233 155.555 493.688L155.419 494.169C155.434 494.173 155.448 494.177 155.463 494.181C155.468 494.183 155.473 494.184 155.478 494.185C155.513 494.195 155.548 494.204 155.583 494.213L156.061 494.332L156.182 493.847L171.483 497.662L171.362 498.147L172.319 498.385L172.44 497.9L187.741 501.715L187.62 502.2L188.576 502.439L188.697 501.954L203.998 505.769L203.877 506.254L204.834 506.492L204.954 506.007L220.256 509.822L220.135 510.307L221.091 510.546L221.212 510.061L236.513 513.876L236.392 514.361L237.348 514.599L237.469 514.114L252.771 517.929L252.65 518.414L253.606 518.653L253.727 518.167L269.028 521.982L268.907 522.468L269.863 522.706L269.984 522.221L285.285 526.036L285.164 526.521L286.121 526.759L286.242 526.274L301.543 530.089L301.422 530.574L302.378 530.813L302.499 530.328L317.8 534.143L317.679 534.628L318.636 534.866L318.757 534.381L334.058 538.196L333.937 538.681L334.893 538.92L335.014 538.435L350.315 542.25L350.194 542.735L351.151 542.973L351.271 542.488L366.573 546.303L366.452 546.788L367.408 547.027L367.529 546.542L382.83 550.356L382.709 550.842L383.187 550.961C383.242 550.975 383.297 550.987 383.352 550.999L383.458 550.511C385.096 550.866 386.805 550.376 388.006 549.207L388.355 549.565C388.395 549.526 388.435 549.486 388.474 549.445L388.817 549.09L388.457 548.743L399.411 537.399L399.771 537.747L400.456 537.038L400.096 536.69L411.05 525.347L411.41 525.694L412.095 524.985L411.735 524.638L422.69 513.294L423.049 513.641L423.734 512.932L423.374 512.585L434.329 501.241L434.688 501.589L435.373 500.88L435.013 500.533L445.968 489.189L446.327 489.536L447.012 488.827L446.652 488.48L457.607 477.136L457.966 477.484L458.651 476.775L458.291 476.427L469.246 465.084L469.606 465.431L470.29 464.722L469.931 464.375L480.885 453.031L481.245 453.378L481.929 452.669L481.57 452.322L492.524 440.978L492.884 441.326L493.568 440.617L493.209 440.269L504.163 428.926L504.523 429.273L505.208 428.564L504.848 428.217L515.802 416.873L516.162 417.22L516.847 416.511L516.487 416.164L527.441 404.82L527.801 405.168L528.486 404.459L528.126 404.111L539.081 392.768L539.44 393.115L540.125 392.406L539.765 392.059L550.72 380.715L551.079 381.062L551.422 380.708C551.461 380.667 551.5 380.626 551.537 380.584L551.167 380.248C552.294 379.007 552.724 377.283 552.312 375.658L552.796 375.535C552.783 375.48 552.768 375.426 552.752 375.371L552.616 374.898L552.136 375.035L547.789 359.877L548.27 359.739L547.998 358.791L547.517 358.929L543.171 343.771L543.651 343.633L543.38 342.685L542.899 342.823L538.552 327.665L539.033 327.527L538.761 326.579L538.281 326.717L533.934 311.558L534.415 311.421L534.143 310.473L533.662 310.611L529.316 295.452L529.796 295.315L529.525 294.367L529.044 294.505L524.697 279.346L525.178 279.209L524.906 278.261L524.426 278.399L520.079 263.24L520.56 263.102L520.288 262.155L519.807 262.293L515.461 247.134L515.941 246.996L515.67 246.049L515.189 246.187L510.842 231.028L511.323 230.89L511.051 229.943L510.571 230.081L506.224 214.922L506.705 214.784L506.433 213.837L505.952 213.975L501.606 198.816L502.086 198.678L501.815 197.731L501.334 197.869L496.987 182.71L497.468 182.572L497.196 181.625L496.716 181.762L492.369 166.604L492.85 166.466L492.578 165.519L492.097 165.656L487.751 150.498L488.231 150.36L488.095 149.886C488.08 149.832 488.063 149.778 488.046 149.724L487.57 149.877C487.059 148.28 485.78 147.046 484.167 146.59L484.303 146.109C484.248 146.094 484.194 146.079 484.139 146.066L483.661 145.946L483.54 146.431L468.239 142.616L468.36 142.131L467.403 141.893L467.282 142.378L451.981 138.563L452.102 138.078L451.146 137.839L451.025 138.325L435.724 134.51L435.845 134.024L434.889 133.786L434.768 134.271L419.466 130.456L419.587 129.971L418.631 129.733L418.51 130.218L403.209 126.403L403.33 125.918L402.374 125.679L402.253 126.164L386.952 122.349L387.073 121.864L386.116 121.626L385.995 122.111L370.694 118.296L370.815 117.811L369.859 117.572L369.738 118.057L354.437 114.242L354.558 113.757L353.601 113.519L353.48 114.004L338.179 110.189L338.3 109.704L337.344 109.465L337.223 109.951L321.922 106.136L322.043 105.65L321.086 105.412L320.965 105.897L305.664 102.082L305.785 101.597L304.829 101.359L304.708 101.844L289.407 98.0287L289.528 97.5435L288.572 97.3051L288.451 97.7902L273.149 93.9752L273.27 93.4901L272.314 93.2517L272.193 93.7368L256.892 89.9218L257.013 89.4367L256.535 89.3174C256.48 89.3037 256.425 89.2909 256.37 89.279L256.264 89.7676C254.626 89.4122 252.917 89.9021 251.716 91.0716L251.367 90.7134C251.327 90.7527 251.287 90.7927 251.248 90.8334L250.906 91.1879Z" stroke="#FBB13C" stroke-dasharray="1 16"/>
<path d="M261.122 93.2302L260.786 92.8602C261.982 91.7725 263.632 91.3304 265.212 91.6743L265.106 92.1628C265.175 92.178 265.245 92.1948 265.314 92.2134L265.804 92.3448L265.934 91.8619L275.742 94.4901L275.613 94.973L276.594 95.2358L276.723 94.7529L286.532 97.3811L286.403 97.8641L287.383 98.1269L287.513 97.6439L297.321 100.272L297.192 100.755L298.173 101.018L298.302 100.535L308.111 103.163L307.981 103.646L308.962 103.909L309.092 103.426L318.9 106.054L318.771 106.537L319.752 106.8L319.881 106.317L329.69 108.945L329.56 109.428L330.541 109.691L330.671 109.208L340.479 111.836L340.35 112.319L341.331 112.582L341.46 112.099L351.269 114.727L351.139 115.21L352.12 115.473L352.25 114.99L362.058 117.618L361.929 118.101L362.91 118.364L363.039 117.881L372.848 120.509L372.718 120.992L373.699 121.255L373.829 120.772L383.637 123.4L383.508 123.883L384.489 124.146L384.618 123.663L394.427 126.291L394.297 126.774L395.278 127.037L395.408 126.554L405.216 129.182L405.087 129.665L406.068 129.928L406.197 129.445L416.006 132.073L415.876 132.556L416.857 132.819L416.987 132.336L426.795 134.965L426.666 135.447L427.647 135.71L427.776 135.227L437.585 137.856L437.455 138.339L438.436 138.601L438.566 138.118L448.374 140.747L448.245 141.23L449.226 141.492L449.355 141.009L459.164 143.638L459.034 144.121L460.015 144.383L460.144 143.9L469.953 146.529L469.824 147.012L470.805 147.274L470.934 146.791L480.743 149.42L480.613 149.903L481.594 150.165L481.723 149.683L491.532 152.311L491.403 152.794L491.893 152.925C491.962 152.944 492.031 152.964 492.099 152.985L492.251 152.509C493.791 153.001 494.999 154.209 495.491 155.749L495.015 155.901C495.036 155.969 495.057 156.038 495.075 156.107L495.206 156.598L495.689 156.468L498.318 166.277L497.835 166.406L498.098 167.387L498.58 167.258L501.209 177.066L500.726 177.196L500.989 178.177L501.472 178.047L504.1 187.856L503.617 187.985L503.88 188.966L504.363 188.837L506.991 198.645L506.508 198.775L506.771 199.755L507.254 199.626L509.882 209.435L509.399 209.564L509.662 210.545L510.145 210.416L512.773 220.224L512.29 220.354L512.553 221.334L513.036 221.205L515.664 231.014L515.181 231.143L515.444 232.124L515.927 231.994L518.555 241.803L518.072 241.933L518.335 242.913L518.818 242.784L521.446 252.593L520.963 252.722L521.226 253.703L521.709 253.573L524.337 263.382L523.854 263.511L524.117 264.492L524.6 264.363L527.228 274.172L526.745 274.301L527.008 275.282L527.491 275.152L530.119 284.961L529.636 285.09L529.899 286.071L530.382 285.942L533.01 295.751L532.527 295.88L532.79 296.861L533.273 296.731L535.901 306.54L535.418 306.669L535.681 307.65L536.164 307.521L538.792 317.329L538.309 317.459L538.572 318.44L539.055 318.31L541.683 328.119L541.2 328.248L541.463 329.229L541.946 329.1L544.574 338.908L544.091 339.038L544.354 340.019L544.837 339.889L547.465 349.698L546.982 349.827L547.245 350.808L547.728 350.679L550.356 360.487L549.873 360.617L550.136 361.598L550.619 361.468L553.247 371.277L552.764 371.406L553.027 372.387L553.51 372.258L556.138 382.066L555.655 382.196L555.787 382.686C555.805 382.755 555.822 382.825 555.837 382.895L556.326 382.788C556.67 384.368 556.228 386.018 555.14 387.214L554.77 386.878C554.722 386.93 554.673 386.982 554.622 387.033L554.263 387.392L554.617 387.746L547.436 394.926L547.083 394.572L546.365 395.29L546.718 395.644L539.538 402.824L539.184 402.471L538.466 403.189L538.82 403.542L531.639 410.723L531.286 410.369L530.568 411.087L530.921 411.441L523.741 418.621L523.387 418.268L522.669 418.986L523.023 419.339L515.842 426.52L515.489 426.166L514.771 426.884L515.124 427.238L507.944 434.418L507.59 434.065L506.872 434.783L507.226 435.136L500.045 442.317L499.692 441.963L498.974 442.681L499.327 443.035L492.147 450.215L491.794 449.861L491.075 450.58L491.429 450.933L484.249 458.113L483.895 457.76L483.177 458.478L483.531 458.832L476.35 466.012L475.997 465.658L475.279 466.376L475.632 466.73L468.452 473.91L468.098 473.557L467.38 474.275L467.734 474.628L460.553 481.809L460.2 481.455L459.482 482.173L459.835 482.527L452.655 489.707L452.301 489.354L451.583 490.072L451.937 490.425L444.756 497.606L444.403 497.252L443.685 497.97L444.038 498.324L436.858 505.504L436.504 505.151L435.786 505.869L436.14 506.222L428.959 513.403L428.606 513.049L427.888 513.767L428.241 514.121L421.061 521.301L420.707 520.948L419.989 521.666L420.343 522.019L413.163 529.2L412.809 528.846L412.091 529.564L412.445 529.918L405.264 537.098L404.911 536.744L404.193 537.462L404.546 537.816L397.366 544.996L397.012 544.643L396.294 545.361L396.648 545.714L389.467 552.895L389.114 552.541L388.755 552.9C388.704 552.951 388.652 553 388.6 553.048L388.936 553.418C387.74 554.506 386.09 554.948 384.51 554.604L384.616 554.116C384.547 554.1 384.477 554.084 384.408 554.065L383.917 553.934L383.788 554.417L373.979 551.788L374.109 551.305L373.128 551.043L372.999 551.526L363.19 548.897L363.319 548.414L362.339 548.152L362.209 548.634L352.4 546.006L352.53 545.523L351.549 545.261L351.42 545.743L341.611 543.115L341.74 542.632L340.76 542.369L340.63 542.852L330.822 540.224L330.951 539.741L329.97 539.478L329.841 539.961L320.032 537.333L320.161 536.85L319.181 536.587L319.051 537.07L309.243 534.442L309.372 533.959L308.391 533.696L308.262 534.179L298.453 531.551L298.583 531.068L297.602 530.805L297.472 531.288L287.664 528.66L287.793 528.177L286.812 527.914L286.683 528.397L276.874 525.769L277.004 525.286L276.023 525.023L275.893 525.506L266.085 522.878L266.214 522.395L265.233 522.132L265.104 522.615L255.295 519.987L255.425 519.504L254.444 519.241L254.314 519.724L244.506 517.096L244.635 516.613L243.654 516.35L243.525 516.833L233.716 514.205L233.846 513.722L232.865 513.459L232.735 513.942L222.927 511.314L223.056 510.831L222.075 510.568L221.946 511.051L212.137 508.423L212.267 507.94L211.286 507.677L211.156 508.16L201.348 505.532L201.477 505.049L200.496 504.786L200.367 505.269L190.558 502.641L190.688 502.158L189.707 501.895L189.577 502.378L179.769 499.75L179.898 499.267L178.917 499.004L178.788 499.487L168.979 496.859L169.109 496.376L168.128 496.113L167.998 496.596L158.19 493.968L158.319 493.485L157.829 493.353C157.76 493.335 157.691 493.315 157.623 493.293L157.471 493.769C155.931 493.277 154.723 492.069 154.231 490.529L154.707 490.377C154.686 490.309 154.665 490.241 154.647 490.171L154.515 489.681L154.032 489.81L151.404 480.002L151.887 479.872L151.624 478.891L151.141 479.021L148.513 469.212L148.996 469.083L148.733 468.102L148.25 468.231L145.622 458.423L146.105 458.293L145.842 457.312L145.359 457.442L142.731 447.633L143.214 447.504L142.951 446.523L142.468 446.652L139.84 436.844L140.323 436.714L140.06 435.733L139.577 435.863L136.949 426.054L137.432 425.925L137.169 424.944L136.686 425.073L134.058 415.265L134.541 415.135L134.278 414.155L133.795 414.284L131.167 404.475L131.65 404.346L131.387 403.365L130.904 403.494L128.276 393.686L128.759 393.556L128.496 392.576L128.013 392.705L125.385 382.896L125.868 382.767L125.605 381.786L125.122 381.915L122.494 372.107L122.977 371.977L122.714 370.997L122.231 371.126L119.603 361.317L120.086 361.188L119.823 360.207L119.34 360.337L116.712 350.528L117.195 350.398L116.932 349.418L116.449 349.547L113.821 339.738L114.304 339.609L114.041 338.628L113.558 338.758L110.93 328.949L111.413 328.82L111.15 327.839L110.667 327.968L108.039 318.159L108.522 318.03L108.259 317.049L107.776 317.179L105.148 307.37L105.631 307.241L105.368 306.26L104.885 306.389L102.257 296.58L102.74 296.451L102.477 295.47L101.994 295.6L99.3656 285.791L99.8486 285.662L99.5858 284.681L99.1028 284.81L96.4746 275.002L96.9576 274.872L96.6947 273.891L96.2118 274.021L93.5836 264.212L94.0665 264.083L93.9351 263.592C93.9166 263.523 93.8997 263.453 93.8846 263.384L93.396 263.49C93.0522 261.91 93.4943 260.26 94.582 259.064L94.9519 259.401C94.9998 259.348 95.0491 259.296 95.0998 259.246L95.4589 258.886L95.1053 258.533L102.286 251.353L102.639 251.706L103.357 250.988L103.004 250.634L110.184 243.454L110.538 243.808L111.256 243.09L110.902 242.736L118.083 235.556L118.436 235.909L119.154 235.191L118.801 234.838L125.981 227.657L126.335 228.011L127.053 227.293L126.699 226.939L133.88 219.759L134.233 220.112L134.951 219.394L134.598 219.041L141.778 211.86L142.132 212.214L142.85 211.496L142.496 211.142L149.676 203.962L150.03 204.315L150.748 203.597L150.394 203.244L157.575 196.063L157.928 196.417L158.646 195.699L158.293 195.345L165.473 188.165L165.827 188.518L166.545 187.8L166.191 187.447L173.372 180.266L173.725 180.62L174.443 179.902L174.09 179.548L181.27 172.368L181.624 172.722L182.342 172.004L181.988 171.65L189.169 164.47L189.522 164.823L190.24 164.105L189.887 163.752L197.067 156.571L197.421 156.925L198.139 156.207L197.785 155.853L204.966 148.673L205.319 149.026L206.037 148.308L205.684 147.955L212.864 140.774L213.218 141.128L213.936 140.41L213.582 140.056L220.762 132.876L221.116 133.229L221.834 132.511L221.48 132.158L228.661 124.977L229.014 125.331L229.732 124.613L229.379 124.259L236.559 117.079L236.913 117.432L237.631 116.714L237.277 116.361L244.458 109.18L244.811 109.534L245.529 108.816L245.176 108.462L252.356 101.282L252.71 101.636L253.428 100.917L253.074 100.564L260.255 93.3835L260.608 93.7371L260.967 93.3781C261.018 93.3274 261.07 93.2781 261.122 93.2302Z" fill="white" fill-opacity="0.203985" stroke="#FBB13C" stroke-miterlimit="1" stroke-dasharray="1 10"/>
<path d="M415.268 102.725L558.522 292.829C558.63 292.972 558.653 293.161 558.583 293.325L465.575 512.439C465.505 512.603 465.353 512.718 465.176 512.739L228.914 541.749C228.736 541.771 228.561 541.696 228.454 541.553L85.1998 351.449C85.0923 351.307 85.0691 351.117 85.1389 350.953L178.147 131.84C178.217 131.675 178.369 131.561 178.546 131.539L414.808 102.529C414.985 102.508 415.161 102.582 415.268 102.725Z" stroke="#FBB13C" stroke-width="3"/>
</svg>
